<svg width="124" height="124" viewBox="0 0 124 124" fill="none" xmlns="http://www.w3.org/2000/svg">
<g clip-path="url(#clip0_2032_103)">
<mask id="path-1-outside-1_2032_103" maskUnits="userSpaceOnUse" x="59" y="41" width="50" height="74" fill="black">
<rect fill="white" x="59" y="41" width="50" height="74"/>
<path d="M103.84 56.56C103.84 58.16 103.573 59.5733 103.04 60.8C102.507 61.9733 101.787 62.96 100.88 63.76C100.027 64.56 99.0133 65.1733 97.84 65.6C96.72 65.9733 95.5467 66.16 94.32 66.16L94 65.44C94.3733 65.1733 94.8267 64.5333 95.36 63.52C95.9467 62.5067 96.24 60.9333 96.24 58.8C96.24 55.3867 95.3067 52.8267 93.44 51.12C91.5733 49.4133 88.64 48.56 84.64 48.56C83.7867 48.56 82.5867 48.64 81.04 48.8C79.5467 48.96 78.0267 49.3867 76.48 50.08C74.9867 50.7733 73.68 51.8133 72.56 53.2C71.44 54.5333 70.88 56.4267 70.88 58.88C70.88 61.12 71.36 63.0133 72.32 64.56C73.3333 66.1067 74.64 67.4667 76.24 68.64C77.84 69.8133 79.6533 70.8533 81.68 71.76C83.76 72.6667 85.8667 73.5733 88 74.48C90.1867 75.3867 92.2933 76.3733 94.32 77.44C96.4 78.4533 98.24 79.68 99.84 81.12C101.44 82.56 102.72 84.2933 103.68 86.32C104.693 88.2933 105.2 90.6667 105.2 93.44C105.2 96.4267 104.64 99.04 103.52 101.28C102.4 103.467 100.827 105.307 98.8 106.8C96.8267 108.24 94.4267 109.307 91.6 110C88.8267 110.747 85.76 111.12 82.4 111.12C81.8133 111.12 80.96 111.093 79.84 111.04C78.72 110.987 77.6 110.853 76.48 110.64C75.36 110.48 74.3733 110.213 73.52 109.84C72.72 109.467 72.32 108.933 72.32 108.24C70.7733 108.24 69.3867 107.973 68.16 107.44C66.9333 106.853 65.8667 106.08 64.96 105.12C64.0533 104.16 63.36 103.04 62.88 101.76C62.4 100.427 62.16 98.9867 62.16 97.44C62.16 95.68 62.4533 94.2133 63.04 93.04C63.6267 91.8133 64.3733 90.8267 65.28 90.08C66.1867 89.28 67.2 88.6933 68.32 88.32C69.44 87.9467 70.5333 87.7067 71.6 87.6L71.92 88C71.6 88.4267 71.3333 88.9333 71.12 89.52C70.96 90.1067 70.8267 90.6933 70.72 91.28C70.6133 91.8667 70.5333 92.4533 70.48 93.04C70.48 93.5733 70.48 94.0267 70.48 94.4C70.48 96.9067 70.8533 98.9867 71.6 100.64C72.4 102.24 73.3867 103.52 74.56 104.48C75.7333 105.44 77.0133 106.133 78.4 106.56C79.84 106.933 81.2 107.12 82.48 107.12C83.3333 107.12 84.56 107.013 86.16 106.8C87.8133 106.533 89.44 106 91.04 105.2C92.64 104.4 94.0267 103.253 95.2 101.76C96.4267 100.213 97.04 98.16 97.04 95.6C97.04 92.6133 96.2133 90.2133 94.56 88.4C92.96 86.5333 90.9333 84.96 88.48 83.68C86.0267 82.3467 83.36 81.1467 80.48 80.08C77.6 78.96 74.9333 77.6267 72.48 76.08C70.0267 74.5333 67.9733 72.6133 66.32 70.32C64.72 68.0267 63.92 65.04 63.92 61.36C63.92 57.7867 64.6667 54.88 66.16 52.64C67.7067 50.4 69.6 48.6933 71.84 47.52C74.08 46.2933 76.4533 45.4667 78.96 45.04C81.52 44.6133 83.84 44.4 85.92 44.4C91.2 44.4 93.84 45.4667 93.84 47.6C94.96 47.6 96.1067 47.7333 97.28 48C98.5067 48.2667 99.6 48.7467 100.56 49.44C101.52 50.08 102.293 50.9867 102.88 52.16C103.52 53.28 103.84 54.7467 103.84 56.56Z"/>
</mask>
<path d="M103.84 56.56C103.84 58.16 103.573 59.5733 103.04 60.8C102.507 61.9733 101.787 62.96 100.88 63.76C100.027 64.56 99.0133 65.1733 97.84 65.6C96.72 65.9733 95.5467 66.16 94.32 66.16L94 65.44C94.3733 65.1733 94.8267 64.5333 95.36 63.52C95.9467 62.5067 96.24 60.9333 96.24 58.8C96.24 55.3867 95.3067 52.8267 93.44 51.12C91.5733 49.4133 88.64 48.56 84.64 48.56C83.7867 48.56 82.5867 48.64 81.04 48.8C79.5467 48.96 78.0267 49.3867 76.48 50.08C74.9867 50.7733 73.68 51.8133 72.56 53.2C71.44 54.5333 70.88 56.4267 70.88 58.88C70.88 61.12 71.36 63.0133 72.32 64.56C73.3333 66.1067 74.64 67.4667 76.24 68.64C77.84 69.8133 79.6533 70.8533 81.68 71.76C83.76 72.6667 85.8667 73.5733 88 74.48C90.1867 75.3867 92.2933 76.3733 94.32 77.44C96.4 78.4533 98.24 79.68 99.84 81.12C101.44 82.56 102.72 84.2933 103.68 86.32C104.693 88.2933 105.2 90.6667 105.2 93.44C105.2 96.4267 104.64 99.04 103.52 101.28C102.4 103.467 100.827 105.307 98.8 106.8C96.8267 108.24 94.4267 109.307 91.6 110C88.8267 110.747 85.76 111.12 82.4 111.12C81.8133 111.12 80.96 111.093 79.84 111.04C78.72 110.987 77.6 110.853 76.48 110.64C75.36 110.48 74.3733 110.213 73.52 109.84C72.72 109.467 72.32 108.933 72.32 108.24C70.7733 108.24 69.3867 107.973 68.16 107.44C66.9333 106.853 65.8667 106.08 64.96 105.12C64.0533 104.16 63.36 103.04 62.88 101.76C62.4 100.427 62.16 98.9867 62.16 97.44C62.16 95.68 62.4533 94.2133 63.04 93.04C63.6267 91.8133 64.3733 90.8267 65.28 90.08C66.1867 89.28 67.2 88.6933 68.32 88.32C69.44 87.9467 70.5333 87.7067 71.6 87.6L71.92 88C71.6 88.4267 71.3333 88.9333 71.12 89.52C70.96 90.1067 70.8267 90.6933 70.72 91.28C70.6133 91.8667 70.5333 92.4533 70.48 93.04C70.48 93.5733 70.48 94.0267 70.48 94.4C70.48 96.9067 70.8533 98.9867 71.6 100.64C72.4 102.24 73.3867 103.52 74.56 104.48C75.7333 105.44 77.0133 106.133 78.4 106.56C79.84 106.933 81.2 107.12 82.48 107.12C83.3333 107.12 84.56 107.013 86.16 106.8C87.8133 106.533 89.44 106 91.04 105.2C92.64 104.4 94.0267 103.253 95.2 101.76C96.4267 100.213 97.04 98.16 97.04 95.6C97.04 92.6133 96.2133 90.2133 94.56 88.4C92.96 86.5333 90.9333 84.96 88.48 83.68C86.0267 82.3467 83.36 81.1467 80.48 80.08C77.6 78.96 74.9333 77.6267 72.48 76.08C70.0267 74.5333 67.9733 72.6133 66.32 70.32C64.72 68.0267 63.92 65.04 63.92 61.36C63.92 57.7867 64.6667 54.88 66.16 52.64C67.7067 50.4 69.6 48.6933 71.84 47.52C74.08 46.2933 76.4533 45.4667 78.96 45.04C81.52 44.6133 83.84 44.4 85.92 44.4C91.2 44.4 93.84 45.4667 93.84 47.6C94.96 47.6 96.1067 47.7333 97.28 48C98.5067 48.2667 99.6 48.7467 100.56 49.44C101.52 50.08 102.293 50.9867 102.88 52.16C103.52 53.28 103.84 54.7467 103.84 56.56Z" fill="#1BBF00"/>
<path d="M103.04 60.8L105.771 62.0414L105.781 62.0189L105.791 61.9962L103.04 60.8ZM100.88 63.76L98.8951 61.5105L98.8612 61.5404L98.8282 61.5714L100.88 63.76ZM97.84 65.6L98.7887 68.4461L98.8271 68.4332L98.8652 68.4194L97.84 65.6ZM94.32 66.16L91.5786 67.3784L92.3704 69.16H94.32V66.16ZM94 65.44L92.2563 62.9988L90.2644 64.4216L91.2586 66.6584L94 65.44ZM95.36 63.52L92.7637 62.0169L92.7334 62.0692L92.7052 62.1228L95.36 63.52ZM93.44 51.12L95.4643 48.9059L95.4643 48.9059L93.44 51.12ZM81.04 48.8L80.7313 45.8159L80.7204 45.8171L81.04 48.8ZM76.48 50.08L75.2528 47.3425L75.2347 47.3506L75.2167 47.359L76.48 50.08ZM72.56 53.2L74.8571 55.1296L74.8757 55.1075L74.8938 55.085L72.56 53.2ZM72.32 64.56L69.7711 66.1421L69.7905 66.1733L69.8106 66.2041L72.32 64.56ZM76.24 68.64L74.4659 71.0592L74.4659 71.0592L76.24 68.64ZM81.68 71.76L80.4549 74.4985L80.468 74.5043L80.4812 74.5101L81.68 71.76ZM88 74.48L86.8266 77.241L86.8387 77.2462L86.851 77.2512L88 74.48ZM94.32 77.44L92.9228 80.0948L92.9641 80.1165L93.0061 80.137L94.32 77.44ZM99.84 81.12L97.8331 83.3499L97.8331 83.3499L99.84 81.12ZM103.68 86.32L100.969 87.6043L100.989 87.6477L101.011 87.6904L103.68 86.32ZM103.52 101.28L106.19 102.648L106.197 102.635L106.203 102.622L103.52 101.28ZM98.8 106.8L100.568 109.223L100.58 109.215L98.8 106.8ZM91.6 110L90.8853 107.086L90.8526 107.094L90.8201 107.103L91.6 110ZM76.48 110.64L77.0413 107.693L76.9731 107.68L76.9043 107.67L76.48 110.64ZM73.52 109.84L72.2513 112.559L72.2843 112.574L72.3175 112.588L73.52 109.84ZM72.32 108.24H75.32V105.24H72.32V108.24ZM68.16 107.44L66.8656 110.146L66.9143 110.17L66.9638 110.191L68.16 107.44ZM64.96 105.12L67.141 103.06L67.141 103.06L64.96 105.12ZM62.88 101.76L60.0573 102.776L60.0641 102.795L60.071 102.813L62.88 101.76ZM63.04 93.04L65.7233 94.3816L65.735 94.3581L65.7464 94.3344L63.04 93.04ZM65.28 90.08L67.1871 92.3958L67.2266 92.3633L67.2649 92.3295L65.28 90.08ZM68.32 88.32L67.3713 85.4739L67.3713 85.4739L68.32 88.32ZM71.6 87.6L73.9426 85.7259L72.924 84.4526L71.3015 84.6149L71.6 87.6ZM71.92 88L74.32 89.8L75.7145 87.9407L74.2626 86.1259L71.92 88ZM71.12 89.52L68.3006 88.4948L68.2583 88.6112L68.2257 88.7306L71.12 89.52ZM70.72 91.28L67.7684 90.7433L67.7684 90.7433L70.72 91.28ZM70.48 93.04L67.4923 92.7684L67.48 92.9039V93.04H70.48ZM71.6 100.64L68.8659 101.875L68.8902 101.929L68.9167 101.982L71.6 100.64ZM74.56 104.48L76.4597 102.158L76.4597 102.158L74.56 104.48ZM78.4 106.56L77.5177 109.427L77.582 109.447L77.6471 109.464L78.4 106.56ZM86.16 106.8L86.5565 109.774L86.5972 109.768L86.6377 109.762L86.16 106.8ZM95.2 101.76L92.8495 99.8958L92.841 99.9065L95.2 101.76ZM94.56 88.4L92.2822 90.3524L92.3122 90.3873L92.3431 90.4213L94.56 88.4ZM88.48 83.68L87.0475 86.3159L87.0698 86.328L87.0923 86.3398L88.48 83.68ZM80.48 80.08L79.3927 82.876L79.4153 82.8848L79.4381 82.8932L80.48 80.08ZM72.48 76.08L74.0799 73.5422L74.0799 73.5422L72.48 76.08ZM66.32 70.32L63.8596 72.0365L63.8729 72.0556L63.8865 72.0744L66.32 70.32ZM66.16 52.64L63.6913 50.9354L63.6774 50.9556L63.6638 50.9759L66.16 52.64ZM71.84 47.52L73.232 50.1775L73.2566 50.1646L73.2809 50.1513L71.84 47.52ZM78.96 45.04L78.4668 42.0808L78.4566 42.0825L78.96 45.04ZM93.84 47.6H90.84V50.6H93.84V47.6ZM97.28 48L96.6151 50.9254L96.6289 50.9285L96.6427 50.9315L97.28 48ZM100.56 49.44L98.8035 51.872L98.8491 51.905L98.8959 51.9362L100.56 49.44ZM102.88 52.16L100.197 53.5016L100.234 53.5761L100.275 53.6484L102.88 52.16ZM100.84 56.56C100.84 57.8277 100.629 58.8211 100.289 59.6038L105.791 61.9962C106.518 60.3256 106.84 58.4923 106.84 56.56H100.84ZM100.309 59.5586C99.9388 60.3729 99.4642 61.0084 98.8951 61.5105L102.865 66.0095C104.109 64.9116 105.075 63.5738 105.771 62.0414L100.309 59.5586ZM98.8282 61.5714C98.2904 62.0755 97.6328 62.4831 96.8148 62.7806L98.8652 68.4194C100.394 67.8635 101.763 67.0445 102.932 65.9486L98.8282 61.5714ZM96.8913 62.7539C96.089 63.0214 95.2369 63.16 94.32 63.16V69.16C95.8564 69.16 97.351 68.9253 98.7887 68.4461L96.8913 62.7539ZM97.0614 64.9416L96.7414 64.2216L91.2586 66.6584L91.5786 67.3784L97.0614 64.9416ZM95.7437 67.8812C96.3296 67.4627 96.7648 66.9222 97.0681 66.494C97.3969 66.0298 97.7119 65.4927 98.0148 64.9172L92.7052 62.1228C92.4748 62.5606 92.2964 62.8502 92.1719 63.0259C92.1427 63.0672 92.1196 63.0977 92.1028 63.1189C92.0858 63.1403 92.0775 63.1494 92.0781 63.1487C92.0785 63.1483 92.0918 63.1337 92.1183 63.1095C92.1444 63.0856 92.1903 63.046 92.2563 62.9988L95.7437 67.8812ZM97.9563 65.0231C98.9457 63.3141 99.24 61.0912 99.24 58.8H93.24C93.24 60.7755 92.9476 61.6993 92.7637 62.0169L97.9563 65.0231ZM99.24 58.8C99.24 54.8516 98.148 51.3595 95.4643 48.9059L91.4157 53.3341C92.4654 54.2938 93.24 55.9217 93.24 58.8H99.24ZM95.4643 48.9059C92.7998 46.4698 88.9734 45.56 84.64 45.56V51.56C88.3066 51.56 90.3469 52.3569 91.4157 53.3341L95.4643 48.9059ZM84.64 45.56C83.6321 45.56 82.3119 45.6524 80.7313 45.8159L81.3487 51.7841C82.8614 51.6276 83.9412 51.56 84.64 51.56V45.56ZM80.7204 45.8171C78.8761 46.0147 77.0508 46.5365 75.2528 47.3425L77.7072 52.8175C79.0026 52.2368 80.2172 51.9053 81.3596 51.7829L80.7204 45.8171ZM75.2167 47.359C73.2736 48.2611 71.6101 49.6015 70.2262 51.315L74.8938 55.085C75.7499 54.0251 76.6997 53.2856 77.7433 52.801L75.2167 47.359ZM70.2629 51.2704C68.5342 53.3283 67.88 56.0058 67.88 58.88H73.88C73.88 56.8475 74.3458 55.7383 74.8571 55.1296L70.2629 51.2704ZM67.88 58.88C67.88 61.5503 68.455 64.0217 69.7711 66.1421L74.8689 62.9779C74.265 62.005 73.88 60.6897 73.88 58.88H67.88ZM69.8106 66.2041C71.0346 68.0723 72.5977 69.6892 74.4659 71.0592L78.0141 66.2208C76.6823 65.2442 75.632 64.141 74.8294 62.9159L69.8106 66.2041ZM74.4659 71.0592C76.2559 72.3719 78.257 73.5152 80.4549 74.4985L82.9051 69.0215C81.0496 68.1915 79.4241 67.2548 78.0141 66.2208L74.4659 71.0592ZM80.4812 74.5101C82.5699 75.4205 84.685 76.3308 86.8266 77.241L89.1734 71.719C87.0484 70.8159 84.9501 69.9128 82.8788 69.0099L80.4812 74.5101ZM86.851 77.2512C88.956 78.124 90.9797 79.0721 92.9228 80.0948L95.7172 74.7852C93.607 73.6746 91.4174 72.6493 89.149 71.7088L86.851 77.2512ZM93.0061 80.137C94.8532 81.0368 96.4561 82.1106 97.8331 83.3499L101.847 78.8901C100.024 77.2494 97.9468 75.8698 95.6339 74.743L93.0061 80.137ZM97.8331 83.3499C99.1258 84.5133 100.171 85.921 100.969 87.6043L106.391 85.0357C105.269 82.6657 103.754 80.6067 101.847 78.8901L97.8331 83.3499ZM101.011 87.6904C101.759 89.1468 102.2 91.0266 102.2 93.44H108.2C108.2 90.3068 107.627 87.4398 106.349 84.9496L101.011 87.6904ZM102.2 93.44C102.2 96.0499 101.712 98.1878 100.837 99.9384L106.203 102.622C107.568 99.8922 108.2 96.8035 108.2 93.44H102.2ZM100.85 99.9124C99.947 101.675 98.6827 103.16 97.0204 104.385L100.58 109.215C102.971 107.453 104.853 105.258 106.19 102.648L100.85 99.9124ZM97.0316 104.377C95.4285 105.546 93.4034 106.469 90.8853 107.086L92.3147 112.914C95.4499 112.145 98.2248 110.934 100.568 109.223L97.0316 104.377ZM90.8201 107.103C88.3398 107.771 85.54 108.12 82.4 108.12V114.12C85.98 114.12 89.3135 113.722 92.3799 112.897L90.8201 107.103ZM82.4 108.12C81.8861 108.12 81.0896 108.096 79.9827 108.043L79.6973 114.037C80.8304 114.091 81.7406 114.12 82.4 114.12V108.12ZM79.9827 108.043C79.0056 107.997 78.0254 107.88 77.0413 107.693L75.9187 113.587C77.1746 113.826 78.4344 113.976 79.6973 114.037L79.9827 108.043ZM76.9043 107.67C75.9972 107.541 75.2812 107.336 74.7225 107.092L72.3175 112.588C73.4655 113.091 74.7228 113.419 76.0557 113.61L76.9043 107.67ZM74.7887 107.121C74.696 107.078 74.8438 107.125 75.02 107.36C75.1107 107.481 75.1918 107.63 75.2472 107.8C75.3022 107.969 75.32 108.121 75.32 108.24H69.32C69.32 109.208 69.6142 110.152 70.22 110.96C70.7962 111.728 71.544 112.228 72.2513 112.559L74.7887 107.121ZM72.32 105.24C71.1211 105.24 70.151 105.034 69.3562 104.689L66.9638 110.191C68.6224 110.912 70.4256 111.24 72.32 111.24V105.24ZM69.4544 104.734C68.5504 104.301 67.7869 103.744 67.141 103.06L62.779 107.18C63.9465 108.416 65.3162 109.405 66.8656 110.146L69.4544 104.734ZM67.141 103.06C66.5183 102.401 66.0338 101.626 65.689 100.707L60.071 102.813C60.6862 104.454 61.5884 105.919 62.779 107.18L67.141 103.06ZM65.7027 100.744C65.3503 99.765 65.16 98.6719 65.16 97.44H59.16C59.16 99.3014 59.4497 101.088 60.0573 102.776L65.7027 100.744ZM65.16 97.44C65.16 95.9939 65.4036 95.0211 65.7233 94.3816L60.3567 91.6984C59.5031 93.4056 59.16 95.3661 59.16 97.44H65.16ZM65.7464 94.3344C66.1739 93.4404 66.6675 92.8237 67.1871 92.3958L63.3729 87.7642C62.0792 88.8296 61.0794 90.1863 60.3336 91.7456L65.7464 94.3344ZM67.2649 92.3295C67.8771 91.7893 68.54 91.409 69.2687 91.166L67.3713 85.4739C65.86 85.9777 64.4962 86.7707 63.2951 87.8305L67.2649 92.3295ZM69.2687 91.166C70.1988 90.856 71.0741 90.6676 71.8985 90.5851L71.3015 84.6149C69.9926 84.7458 68.6812 85.0373 67.3713 85.4739L69.2687 91.166ZM69.2574 89.4741L69.5774 89.8741L74.2626 86.1259L73.9426 85.7259L69.2574 89.4741ZM69.52 86.2C68.9957 86.8991 68.5981 87.6767 68.3006 88.4948L73.9394 90.5452C74.0686 90.19 74.2043 89.9542 74.32 89.8L69.52 86.2ZM68.2257 88.7306C68.0434 89.399 67.8908 90.07 67.7684 90.7433L73.6716 91.8167C73.7625 91.3167 73.8766 90.8143 74.0143 90.3093L68.2257 88.7306ZM67.7684 90.7433C67.646 91.4167 67.5538 92.0918 67.4923 92.7684L73.4677 93.3116C73.5128 92.8149 73.5807 92.3166 73.6716 91.8167L67.7684 90.7433ZM67.48 93.04C67.48 93.041 67.48 93.0421 67.48 93.0431C67.48 93.0442 67.48 93.0452 67.48 93.0462C67.48 93.0473 67.48 93.0483 67.48 93.0494C67.48 93.0504 67.48 93.0514 67.48 93.0525C67.48 93.0535 67.48 93.0546 67.48 93.0556C67.48 93.0566 67.48 93.0577 67.48 93.0587C67.48 93.0598 67.48 93.0608 67.48 93.0618C67.48 93.0629 67.48 93.0639 67.48 93.0649C67.48 93.066 67.48 93.067 67.48 93.068C67.48 93.0691 67.48 93.0701 67.48 93.0712C67.48 93.0722 67.48 93.0732 67.48 93.0743C67.48 93.0753 67.48 93.0763 67.48 93.0774C67.48 93.0784 67.48 93.0794 67.48 93.0805C67.48 93.0815 67.48 93.0825 67.48 93.0836C67.48 93.0846 67.48 93.0856 67.48 93.0867C67.48 93.0877 67.48 93.0887 67.48 93.0898C67.48 93.0908 67.48 93.0918 67.48 93.0929C67.48 93.0939 67.48 93.0949 67.48 93.096C67.48 93.097 67.48 93.098 67.48 93.099C67.48 93.1001 67.48 93.1011 67.48 93.1021C67.48 93.1032 67.48 93.1042 67.48 93.1052C67.48 93.1062 67.48 93.1073 67.48 93.1083C67.48 93.1093 67.48 93.1104 67.48 93.1114C67.48 93.1124 67.48 93.1134 67.48 93.1145C67.48 93.1155 67.48 93.1165 67.48 93.1176C67.48 93.1186 67.48 93.1196 67.48 93.1206C67.48 93.1217 67.48 93.1227 67.48 93.1237C67.48 93.1247 67.48 93.1258 67.48 93.1268C67.48 93.1278 67.48 93.1288 67.48 93.1299C67.48 93.1309 67.48 93.1319 67.48 93.1329C67.48 93.1339 67.48 93.135 67.48 93.136C67.48 93.137 67.48 93.138 67.48 93.1391C67.48 93.1401 67.48 93.1411 67.48 93.1421C67.48 93.1431 67.48 93.1442 67.48 93.1452C67.48 93.1462 67.48 93.1472 67.48 93.1483C67.48 93.1493 67.48 93.1503 67.48 93.1513C67.48 93.1523 67.48 93.1534 67.48 93.1544C67.48 93.1554 67.48 93.1564 67.48 93.1574C67.48 93.1584 67.48 93.1595 67.48 93.1605C67.48 93.1615 67.48 93.1625 67.48 93.1635C67.48 93.1646 67.48 93.1656 67.48 93.1666C67.48 93.1676 67.48 93.1686 67.48 93.1696C67.48 93.1707 67.48 93.1717 67.48 93.1727C67.48 93.1737 67.48 93.1747 67.48 93.1757C67.48 93.1767 67.48 93.1778 67.48 93.1788C67.48 93.1798 67.48 93.1808 67.48 93.1818C67.48 93.1828 67.48 93.1838 67.48 93.1849C67.48 93.1859 67.48 93.1869 67.48 93.1879C67.48 93.1889 67.48 93.1899 67.48 93.1909C67.48 93.1919 67.48 93.1929 67.48 93.194C67.48 93.195 67.48 93.196 67.48 93.197C67.48 93.198 67.48 93.199 67.48 93.2C67.48 93.201 67.48 93.202 67.48 93.2031C67.48 93.2041 67.48 93.2051 67.48 93.2061C67.48 93.2071 67.48 93.2081 67.48 93.2091C67.48 93.2101 67.48 93.2111 67.48 93.2121C67.48 93.2131 67.48 93.2141 67.48 93.2151C67.48 93.2162 67.48 93.2172 67.48 93.2182C67.48 93.2192 67.48 93.2202 67.48 93.2212C67.48 93.2222 67.48 93.2232 67.48 93.2242C67.48 93.2252 67.48 93.2262 67.48 93.2272C67.48 93.2282 67.48 93.2292 67.48 93.2302C67.48 93.2312 67.48 93.2322 67.48 93.2332C67.48 93.2342 67.48 93.2352 67.48 93.2362C67.48 93.2373 67.48 93.2383 67.48 93.2393C67.48 93.2403 67.48 93.2413 67.48 93.2423C67.48 93.2433 67.48 93.2443 67.48 93.2453C67.48 93.2463 67.48 93.2473 67.48 93.2483C67.48 93.2493 67.48 93.2503 67.48 93.2513C67.48 93.2523 67.48 93.2533 67.48 93.2543C67.48 93.2553 67.48 93.2563 67.48 93.2573C67.48 93.2583 67.48 93.2593 67.48 93.2603C67.48 93.2613 67.48 93.2622 67.48 93.2632C67.48 93.2642 67.48 93.2652 67.48 93.2662C67.48 93.2672 67.48 93.2682 67.48 93.2692C67.48 93.2702 67.48 93.2712 67.48 93.2722C67.48 93.2732 67.48 93.2742 67.48 93.2752C67.48 93.2762 67.48 93.2772 67.48 93.2782C67.48 93.2792 67.48 93.2802 67.48 93.2812C67.48 93.2822 67.48 93.2831 67.48 93.2841C67.48 93.2851 67.48 93.2861 67.48 93.2871C67.48 93.2881 67.48 93.2891 67.48 93.2901C67.48 93.2911 67.48 93.2921 67.48 93.2931C67.48 93.2941 67.48 93.295 67.48 93.296C67.48 93.297 67.48 93.298 67.48 93.299C67.48 93.3 67.48 93.301 67.48 93.302C67.48 93.303 67.48 93.304 67.48 93.3049C67.48 93.3059 67.48 93.3069 67.48 93.3079C67.48 93.3089 67.48 93.3099 67.48 93.3109C67.48 93.3119 67.48 93.3128 67.48 93.3138C67.48 93.3148 67.48 93.3158 67.48 93.3168C67.48 93.3178 67.48 93.3188 67.48 93.3198C67.48 93.3207 67.48 93.3217 67.48 93.3227C67.48 93.3237 67.48 93.3247 67.48 93.3257C67.48 93.3266 67.48 93.3276 67.48 93.3286C67.48 93.3296 67.48 93.3306 67.48 93.3316C67.48 93.3325 67.48 93.3335 67.48 93.3345C67.48 93.3355 67.48 93.3365 67.48 93.3375C67.48 93.3384 67.48 93.3394 67.48 93.3404C67.48 93.3414 67.48 93.3424 67.48 93.3433C67.48 93.3443 67.48 93.3453 67.48 93.3463C67.48 93.3473 67.48 93.3482 67.48 93.3492C67.48 93.3502 67.48 93.3512 67.48 93.3522C67.48 93.3531 67.48 93.3541 67.48 93.3551C67.48 93.3561 67.48 93.3571 67.48 93.358C67.48 93.359 67.48 93.36 67.48 93.361C67.48 93.3619 67.48 93.3629 67.48 93.3639C67.48 93.3649 67.48 93.3658 67.48 93.3668C67.48 93.3678 67.48 93.3688 67.48 93.3697C67.48 93.3707 67.48 93.3717 67.48 93.3727C67.48 93.3736 67.48 93.3746 67.48 93.3756C67.48 93.3766 67.48 93.3775 67.48 93.3785C67.48 93.3795 67.48 93.3805 67.48 93.3814C67.48 93.3824 67.48 93.3834 67.48 93.3844C67.48 93.3853 67.48 93.3863 67.48 93.3873C67.48 93.3882 67.48 93.3892 67.48 93.3902C67.48 93.3912 67.48 93.3921 67.48 93.3931C67.48 93.3941 67.48 93.395 67.48 93.396C67.48 93.397 67.48 93.3979 67.48 93.3989C67.48 93.3999 67.48 93.4008 67.48 93.4018C67.48 93.4028 67.48 93.4038 67.48 93.4047C67.48 93.4057 67.48 93.4067 67.48 93.4076C67.48 93.4086 67.48 93.4096 67.48 93.4105C67.48 93.4115 67.48 93.4125 67.48 93.4134C67.48 93.4144 67.48 93.4154 67.48 93.4163C67.48 93.4173 67.48 93.4182 67.48 93.4192C67.48 93.4202 67.48 93.4211 67.48 93.4221C67.48 93.4231 67.48 93.424 67.48 93.425C67.48 93.426 67.48 93.4269 67.48 93.4279C67.48 93.4289 67.48 93.4298 67.48 93.4308C67.48 93.4317 67.48 93.4327 67.48 93.4337C67.48 93.4346 67.48 93.4356 67.48 93.4365C67.48 93.4375 67.48 93.4385 67.48 93.4394C67.48 93.4404 67.48 93.4414 67.48 93.4423C67.48 93.4433 67.48 93.4442 67.48 93.4452C67.48 93.4461 67.48 93.4471 67.48 93.4481C67.48 93.449 67.48 93.45 67.48 93.4509C67.48 93.4519 67.48 93.4529 67.48 93.4538C67.48 93.4548 67.48 93.4557 67.48 93.4567C67.48 93.4576 67.48 93.4586 67.48 93.4596C67.48 93.4605 67.48 93.4615 67.48 93.4624C67.48 93.4634 67.48 93.4643 67.48 93.4653C67.48 93.4662 67.48 93.4672 67.48 93.4682C67.48 93.4691 67.48 93.4701 67.48 93.471C67.48 93.472 67.48 93.4729 67.48 93.4739C67.48 93.4748 67.48 93.4758 67.48 93.4767C67.48 93.4777 67.48 93.4786 67.48 93.4796C67.48 93.4805 67.48 93.4815 67.48 93.4824C67.48 93.4834 67.48 93.4843 67.48 93.4853C67.48 93.4862 67.48 93.4872 67.48 93.4881C67.48 93.4891 67.48 93.49 67.48 93.491C67.48 93.4919 67.48 93.4929 67.48 93.4938C67.48 93.4948 67.48 93.4957 67.48 93.4967C67.48 93.4976 67.48 93.4986 67.48 93.4995C67.48 93.5005 67.48 93.5014 67.48 93.5024C67.48 93.5033 67.48 93.5043 67.48 93.5052C67.48 93.5062 67.48 93.5071 67.48 93.5081C67.48 93.509 67.48 93.5099 67.48 93.5109C67.48 93.5118 67.48 93.5128 67.48 93.5137C67.48 93.5147 67.48 93.5156 67.48 93.5166C67.48 93.5175 67.48 93.5184 67.48 93.5194C67.48 93.5203 67.48 93.5213 67.48 93.5222C67.48 93.5232 67.48 93.5241 67.48 93.525C67.48 93.526 67.48 93.5269 67.48 93.5279C67.48 93.5288 67.48 93.5298 67.48 93.5307C67.48 93.5316 67.48 93.5326 67.48 93.5335C67.48 93.5345 67.48 93.5354 67.48 93.5363C67.48 93.5373 67.48 93.5382 67.48 93.5392C67.48 93.5401 67.48 93.541 67.48 93.542C67.48 93.5429 67.48 93.5439 67.48 93.5448C67.48 93.5457 67.48 93.5467 67.48 93.5476C67.48 93.5485 67.48 93.5495 67.48 93.5504C67.48 93.5514 67.48 93.5523 67.48 93.5532C67.48 93.5542 67.48 93.5551 67.48 93.556C67.48 93.557 67.48 93.5579 67.48 93.5588C67.48 93.5598 67.48 93.5607 67.48 93.5616C67.48 93.5626 67.48 93.5635 67.48 93.5644C67.48 93.5654 67.48 93.5663 67.48 93.5672C67.48 93.5682 67.48 93.5691 67.48 93.57C67.48 93.571 67.48 93.5719 67.48 93.5728C67.48 93.5738 67.48 93.5747 67.48 93.5756C67.48 93.5766 67.48 93.5775 67.48 93.5784C67.48 93.5794 67.48 93.5803 67.48 93.5812C67.48 93.5821 67.48 93.5831 67.48 93.584C67.48 93.5849 67.48 93.5859 67.48 93.5868C67.48 93.5877 67.48 93.5886 67.48 93.5896C67.48 93.5905 67.48 93.5914 67.48 93.5924C67.48 93.5933 67.48 93.5942 67.48 93.5951C67.48 93.5961 67.48 93.597 67.48 93.5979C67.48 93.5988 67.48 93.5998 67.48 93.6007C67.48 93.6016 67.48 93.6025 67.48 93.6035C67.48 93.6044 67.48 93.6053 67.48 93.6062C67.48 93.6072 67.48 93.6081 67.48 93.609C67.48 93.6099 67.48 93.6109 67.48 93.6118C67.48 93.6127 67.48 93.6136 67.48 93.6146C67.48 93.6155 67.48 93.6164 67.48 93.6173C67.48 93.6183 67.48 93.6192 67.48 93.6201C67.48 93.621 67.48 93.6219 67.48 93.6229C67.48 93.6238 67.48 93.6247 67.48 93.6256C67.48 93.6265 67.48 93.6275 67.48 93.6284C67.48 93.6293 67.48 93.6302 67.48 93.6311C67.48 93.6321 67.48 93.633 67.48 93.6339C67.48 93.6348 67.48 93.6357 67.48 93.6366C67.48 93.6376 67.48 93.6385 67.48 93.6394C67.48 93.6403 67.48 93.6412 67.48 93.6421C67.48 93.6431 67.48 93.644 67.48 93.6449C67.48 93.6458 67.48 93.6467 67.48 93.6476C67.48 93.6486 67.48 93.6495 67.48 93.6504C67.48 93.6513 67.48 93.6522 67.48 93.6531C67.48 93.654 67.48 93.655 67.48 93.6559C67.48 93.6568 67.48 93.6577 67.48 93.6586C67.48 93.6595 67.48 93.6604 67.48 93.6614C67.48 93.6623 67.48 93.6632 67.48 93.6641C67.48 93.665 67.48 93.6659 67.48 93.6668C67.48 93.6677 67.48 93.6686 67.48 93.6696C67.48 93.6705 67.48 93.6714 67.48 93.6723C67.48 93.6732 67.48 93.6741 67.48 93.675C67.48 93.6759 67.48 93.6768 67.48 93.6777C67.48 93.6786 67.48 93.6796 67.48 93.6805C67.48 93.6814 67.48 93.6823 67.48 93.6832C67.48 93.6841 67.48 93.685 67.48 93.6859C67.48 93.6868 67.48 93.6877 67.48 93.6886C67.48 93.6895 67.48 93.6904 67.48 93.6913C67.48 93.6923 67.48 93.6932 67.48 93.6941C67.48 93.695 67.48 93.6959 67.48 93.6968C67.48 93.6977 67.48 93.6986 67.48 93.6995C67.48 93.7004 67.48 93.7013 67.48 93.7022C67.48 93.7031 67.48 93.704 67.48 93.7049C67.48 93.7058 67.48 93.7067 67.48 93.7076C67.48 93.7085 67.48 93.7094 67.48 93.7103C67.48 93.7112 67.48 93.7121 67.48 93.713C67.48 93.7139 67.48 93.7148 67.48 93.7157C67.48 93.7166 67.48 93.7175 67.48 93.7184C67.48 93.7193 67.48 93.7202 67.48 93.7211C67.48 93.722 67.48 93.7229 67.48 93.7238C67.48 93.7247 67.48 93.7256 67.48 93.7265C67.48 93.7274 67.48 93.7283 67.48 93.7292C67.48 93.7301 67.48 93.731 67.48 93.7319C67.48 93.7328 67.48 93.7337 67.48 93.7346C67.48 93.7355 67.48 93.7364 67.48 93.7373C67.48 93.7382 67.48 93.7391 67.48 93.7399C67.48 93.7408 67.48 93.7417 67.48 93.7426C67.48 93.7435 67.48 93.7444 67.48 93.7453C67.48 93.7462 67.48 93.7471 67.48 93.748C67.48 93.7489 67.48 93.7498 67.48 93.7507C67.48 93.7516 67.48 93.7525 67.48 93.7533C67.48 93.7542 67.48 93.7551 67.48 93.756C67.48 93.7569 67.48 93.7578 67.48 93.7587C67.48 93.7596 67.48 93.7605 67.48 93.7614C67.48 93.7623 67.48 93.7631 67.48 93.764C67.48 93.7649 67.48 93.7658 67.48 93.7667C67.48 93.7676 67.48 93.7685 67.48 93.7694C67.48 93.7702 67.48 93.7711 67.48 93.772C67.48 93.7729 67.48 93.7738 67.48 93.7747C67.48 93.7756 67.48 93.7765 67.48 93.7773C67.48 93.7782 67.48 93.7791 67.48 93.78C67.48 93.7809 67.48 93.7818 67.48 93.7827C67.48 93.7835 67.48 93.7844 67.48 93.7853C67.48 93.7862 67.48 93.7871 67.48 93.788C67.48 93.7888 67.48 93.7897 67.48 93.7906C67.48 93.7915 67.48 93.7924 67.48 93.7933C67.48 93.7941 67.48 93.795 67.48 93.7959C67.48 93.7968 67.48 93.7977 67.48 93.7985C67.48 93.7994 67.48 93.8003 67.48 93.8012C67.48 93.8021 67.48 93.803 67.48 93.8038C67.48 93.8047 67.48 93.8056 67.48 93.8065C67.48 93.8073 67.48 93.8082 67.48 93.8091C67.48 93.81 67.48 93.8109 67.48 93.8117C67.48 93.8126 67.48 93.8135 67.48 93.8144C67.48 93.8153 67.48 93.8161 67.48 93.817C67.48 93.8179 67.48 93.8188 67.48 93.8196C67.48 93.8205 67.48 93.8214 67.48 93.8223C67.48 93.8231 67.48 93.824 67.48 93.8249C67.48 93.8258 67.48 93.8266 67.48 93.8275C67.48 93.8284 67.48 93.8293 67.48 93.8301C67.48 93.831 67.48 93.8319 67.48 93.8328C67.48 93.8336 67.48 93.8345 67.48 93.8354C67.48 93.8362 67.48 93.8371 67.48 93.838C67.48 93.8389 67.48 93.8397 67.48 93.8406C67.48 93.8415 67.48 93.8424 67.48 93.8432C67.48 93.8441 67.48 93.845 67.48 93.8458C67.48 93.8467 67.48 93.8476 67.48 93.8484C67.48 93.8493 67.48 93.8502 67.48 93.8511C67.48 93.8519 67.48 93.8528 67.48 93.8537C67.48 93.8545 67.48 93.8554 67.48 93.8563C67.48 93.8571 67.48 93.858 67.48 93.8589C67.48 93.8597 67.48 93.8606 67.48 93.8615C67.48 93.8623 67.48 93.8632 67.48 93.8641C67.48 93.8649 67.48 93.8658 67.48 93.8667C67.48 93.8675 67.48 93.8684 67.48 93.8693C67.48 93.8701 67.48 93.871 67.48 93.8718C67.48 93.8727 67.48 93.8736 67.48 93.8744C67.48 93.8753 67.48 93.8762 67.48 93.877C67.48 93.8779 67.48 93.8788 67.48 93.8796C67.48 93.8805 67.48 93.8813 67.48 93.8822C67.48 93.8831 67.48 93.8839 67.48 93.8848C67.48 93.8856 67.48 93.8865 67.48 93.8874C67.48 93.8882 67.48 93.8891 67.48 93.8899C67.48 93.8908 67.48 93.8917 67.48 93.8925C67.48 93.8934 67.48 93.8942 67.48 93.8951C67.48 93.896 67.48 93.8968 67.48 93.8977C67.48 93.8985 67.48 93.8994 67.48 93.9002C67.48 93.9011 67.48 93.902 67.48 93.9028C67.48 93.9037 67.48 93.9045 67.48 93.9054C67.48 93.9062 67.48 93.9071 67.48 93.908C67.48 93.9088 67.48 93.9097 67.48 93.9105C67.48 93.9114 67.48 93.9122 67.48 93.9131C67.48 93.9139 67.48 93.9148 67.48 93.9156C67.48 93.9165 67.48 93.9174 67.48 93.9182C67.48 93.9191 67.48 93.9199 67.48 93.9208C67.48 93.9216 67.48 93.9225 67.48 93.9233C67.48 93.9242 67.48 93.925 67.48 93.9259C67.48 93.9267 67.48 93.9276 67.48 93.9284C67.48 93.9293 67.48 93.9301 67.48 93.931C67.48 93.9318 67.48 93.9327 67.48 93.9335C67.48 93.9344 67.48 93.9352 67.48 93.9361C67.48 93.9369 67.48 93.9378 67.48 93.9386C67.48 93.9395 67.48 93.9403 67.48 93.9412C67.48 93.942 67.48 93.9429 67.48 93.9437C67.48 93.9446 67.48 93.9454 67.48 93.9462C67.48 93.9471 67.48 93.9479 67.48 93.9488C67.48 93.9496 67.48 93.9505 67.48 93.9513C67.48 93.9522 67.48 93.953 67.48 93.9539C67.48 93.9547 67.48 93.9555 67.48 93.9564C67.48 93.9572 67.48 93.9581 67.48 93.9589C67.48 93.9598 67.48 93.9606 67.48 93.9615C67.48 93.9623 67.48 93.9631 67.48 93.964C67.48 93.9648 67.48 93.9657 67.48 93.9665C67.48 93.9673 67.48 93.9682 67.48 93.969C67.48 93.9699 67.48 93.9707 67.48 93.9715C67.48 93.9724 67.48 93.9732 67.48 93.9741C67.48 93.9749 67.48 93.9757 67.48 93.9766C67.48 93.9774 67.48 93.9783 67.48 93.9791C67.48 93.9799 67.48 93.9808 67.48 93.9816C67.48 93.9825 67.48 93.9833 67.48 93.9841C67.48 93.985 67.48 93.9858 67.48 93.9866C67.48 93.9875 67.48 93.9883 67.48 93.9891C67.48 93.99 67.48 93.9908 67.48 93.9917C67.48 93.9925 67.48 93.9933 67.48 93.9942C67.48 93.995 67.48 93.9958 67.48 93.9967C67.48 93.9975 67.48 93.9983 67.48 93.9992C67.48 94 67.48 94.0008 67.48 94.0017C67.48 94.0025 67.48 94.0033 67.48 94.0042C67.48 94.005 67.48 94.0058 67.48 94.0067C67.48 94.0075 67.48 94.0083 67.48 94.0092C67.48 94.01 67.48 94.0108 67.48 94.0116C67.48 94.0125 67.48 94.0133 67.48 94.0141C67.48 94.015 67.48 94.0158 67.48 94.0166C67.48 94.0175 67.48 94.0183 67.48 94.0191C67.48 94.0199 67.48 94.0208 67.48 94.0216C67.48 94.0224 67.48 94.0233 67.48 94.0241C67.48 94.0249 67.48 94.0257 67.48 94.0266C67.48 94.0274 67.48 94.0282 67.48 94.029C67.48 94.0299 67.48 94.0307 67.48 94.0315C67.48 94.0323 67.48 94.0332 67.48 94.034C67.48 94.0348 67.48 94.0356 67.48 94.0365C67.48 94.0373 67.48 94.0381 67.48 94.0389C67.48 94.0398 67.48 94.0406 67.48 94.0414C67.48 94.0422 67.48 94.0431 67.48 94.0439C67.48 94.0447 67.48 94.0455 67.48 94.0463C67.48 94.0472 67.48 94.048 67.48 94.0488C67.48 94.0496 67.48 94.0505 67.48 94.0513C67.48 94.0521 67.48 94.0529 67.48 94.0537C67.48 94.0546 67.48 94.0554 67.48 94.0562C67.48 94.057 67.48 94.0578 67.48 94.0587C67.48 94.0595 67.48 94.0603 67.48 94.0611C67.48 94.0619 67.48 94.0627 67.48 94.0636C67.48 94.0644 67.48 94.0652 67.48 94.066C67.48 94.0668 67.48 94.0676 67.48 94.0685C67.48 94.0693 67.48 94.0701 67.48 94.0709C67.48 94.0717 67.48 94.0725 67.48 94.0734C67.48 94.0742 67.48 94.075 67.48 94.0758C67.48 94.0766 67.48 94.0774 67.48 94.0782C67.48 94.0791 67.48 94.0799 67.48 94.0807C67.48 94.0815 67.48 94.0823 67.48 94.0831C67.48 94.0839 67.48 94.0848 67.48 94.0856C67.48 94.0864 67.48 94.0872 67.48 94.088C67.48 94.0888 67.48 94.0896 67.48 94.0904C67.48 94.0912 67.48 94.0921 67.48 94.0929C67.48 94.0937 67.48 94.0945 67.48 94.0953C67.48 94.0961 67.48 94.0969 67.48 94.0977C67.48 94.0985 67.48 94.0993 67.48 94.1002C67.48 94.101 67.48 94.1018 67.48 94.1026C67.48 94.1034 67.48 94.1042 67.48 94.105C67.48 94.1058 67.48 94.1066 67.48 94.1074C67.48 94.1082 67.48 94.109 67.48 94.1098C67.48 94.1106 67.48 94.1115 67.48 94.1123C67.48 94.1131 67.48 94.1139 67.48 94.1147C67.48 94.1155 67.48 94.1163 67.48 94.1171C67.48 94.1179 67.48 94.1187 67.48 94.1195C67.48 94.1203 67.48 94.1211 67.48 94.1219C67.48 94.1227 67.48 94.1235 67.48 94.1243C67.48 94.1251 67.48 94.1259 67.48 94.1267C67.48 94.1275 67.48 94.1283 67.48 94.1291C67.48 94.1299 67.48 94.1307 67.48 94.1315C67.48 94.1323 67.48 94.1331 67.48 94.1339C67.48 94.1347 67.48 94.1355 67.48 94.1363C67.48 94.1371 67.48 94.1379 67.48 94.1387C67.48 94.1395 67.48 94.1403 67.48 94.1411C67.48 94.1419 67.48 94.1427 67.48 94.1435C67.48 94.1443 67.48 94.1451 67.48 94.1459C67.48 94.1467 67.48 94.1475 67.48 94.1483C67.48 94.1491 67.48 94.1499 67.48 94.1507C67.48 94.1515 67.48 94.1523 67.48 94.1531C67.48 94.1539 67.48 94.1547 67.48 94.1555C67.48 94.1562 67.48 94.157 67.48 94.1578C67.48 94.1586 67.48 94.1594 67.48 94.1602C67.48 94.161 67.48 94.1618 67.48 94.1626C67.48 94.1634 67.48 94.1642 67.48 94.165C67.48 94.1658 67.48 94.1666 67.48 94.1673C67.48 94.1681 67.48 94.1689 67.48 94.1697C67.48 94.1705 67.48 94.1713 67.48 94.1721C67.48 94.1729 67.48 94.1737 67.48 94.1745C67.48 94.1753 67.48 94.176 67.48 94.1768C67.48 94.1776 67.48 94.1784 67.48 94.1792C67.48 94.18 67.48 94.1808 67.48 94.1816C67.48 94.1823 67.48 94.1831 67.48 94.1839C67.48 94.1847 67.48 94.1855 67.48 94.1863C67.48 94.1871 67.48 94.1879 67.48 94.1886C67.48 94.1894 67.48 94.1902 67.48 94.191C67.48 94.1918 67.48 94.1926 67.48 94.1934C67.48 94.1941 67.48 94.1949 67.48 94.1957C67.48 94.1965 67.48 94.1973 67.48 94.1981C67.48 94.1988 67.48 94.1996 67.48 94.2004C67.48 94.2012 67.48 94.202 67.48 94.2028C67.48 94.2035 67.48 94.2043 67.48 94.2051C67.48 94.2059 67.48 94.2067 67.48 94.2074C67.48 94.2082 67.48 94.209 67.48 94.2098C67.48 94.2106 67.48 94.2113 67.48 94.2121C67.48 94.2129 67.48 94.2137 67.48 94.2145C67.48 94.2152 67.48 94.216 67.48 94.2168C67.48 94.2176 67.48 94.2184 67.48 94.2191C67.48 94.2199 67.48 94.2207 67.48 94.2215C67.48 94.2223 67.48 94.223 67.48 94.2238C67.48 94.2246 67.48 94.2254 67.48 94.2261C67.48 94.2269 67.48 94.2277 67.48 94.2285C67.48 94.2292 67.48 94.23 67.48 94.2308C67.48 94.2316 67.48 94.2323 67.48 94.2331C67.48 94.2339 67.48 94.2347 67.48 94.2354C67.48 94.2362 67.48 94.237 67.48 94.2378C67.48 94.2385 67.48 94.2393 67.48 94.2401C67.48 94.2408 67.48 94.2416 67.48 94.2424C67.48 94.2432 67.48 94.2439 67.48 94.2447C67.48 94.2455 67.48 94.2462 67.48 94.247C67.48 94.2478 67.48 94.2486 67.48 94.2493C67.48 94.2501 67.48 94.2509 67.48 94.2516C67.48 94.2524 67.48 94.2532 67.48 94.2539C67.48 94.2547 67.48 94.2555 67.48 94.2562C67.48 94.257 67.48 94.2578 67.48 94.2586C67.48 94.2593 67.48 94.2601 67.48 94.2609C67.48 94.2616 67.48 94.2624 67.48 94.2632C67.48 94.2639 67.48 94.2647 67.48 94.2655C67.48 94.2662 67.48 94.267 67.48 94.2677C67.48 94.2685 67.48 94.2693 67.48 94.27C67.48 94.2708 67.48 94.2716 67.48 94.2723C67.48 94.2731 67.48 94.2739 67.48 94.2746C67.48 94.2754 67.48 94.2762 67.48 94.2769C67.48 94.2777 67.48 94.2784 67.48 94.2792C67.48 94.28 67.48 94.2807 67.48 94.2815C67.48 94.2823 67.48 94.283 67.48 94.2838C67.48 94.2845 67.48 94.2853 67.48 94.2861C67.48 94.2868 67.48 94.2876 67.48 94.2883C67.48 94.2891 67.48 94.2899 67.48 94.2906C67.48 94.2914 67.48 94.2921 67.48 94.2929C67.48 94.2936 67.48 94.2944 67.48 94.2952C67.48 94.2959 67.48 94.2967 67.48 94.2974C67.48 94.2982 67.48 94.299 67.48 94.2997C67.48 94.3005 67.48 94.3012 67.48 94.302C67.48 94.3027 67.48 94.3035 67.48 94.3042C67.48 94.305 67.48 94.3058 67.48 94.3065C67.48 94.3073 67.48 94.308 67.48 94.3088C67.48 94.3095 67.48 94.3103 67.48 94.311C67.48 94.3118 67.48 94.3125 67.48 94.3133C67.48 94.314 67.48 94.3148 67.48 94.3156C67.48 94.3163 67.48 94.3171 67.48 94.3178C67.48 94.3186 67.48 94.3193 67.48 94.3201C67.48 94.3208 67.48 94.3216 67.48 94.3223C67.48 94.3231 67.48 94.3238 67.48 94.3246C67.48 94.3253 67.48 94.3261 67.48 94.3268C67.48 94.3276 67.48 94.3283 67.48 94.3291C67.48 94.3298 67.48 94.3306 67.48 94.3313C67.48 94.3321 67.48 94.3328 67.48 94.3336C67.48 94.3343 67.48 94.335 67.48 94.3358C67.48 94.3365 67.48 94.3373 67.48 94.338C67.48 94.3388 67.48 94.3395 67.48 94.3403C67.48 94.341 67.48 94.3418 67.48 94.3425C67.48 94.3433 67.48 94.344 67.48 94.3447C67.48 94.3455 67.48 94.3462 67.48 94.347C67.48 94.3477 67.48 94.3485 67.48 94.3492C67.48 94.3499 67.48 94.3507 67.48 94.3514C67.48 94.3522 67.48 94.3529 67.48 94.3537C67.48 94.3544 67.48 94.3551 67.48 94.3559C67.48 94.3566 67.48 94.3574 67.48 94.3581C67.48 94.3588 67.48 94.3596 67.48 94.3603C67.48 94.3611 67.48 94.3618 67.48 94.3625C67.48 94.3633 67.48 94.364 67.48 94.3648C67.48 94.3655 67.48 94.3662 67.48 94.367C67.48 94.3677 67.48 94.3685 67.48 94.3692C67.48 94.3699 67.48 94.3707 67.48 94.3714C67.48 94.3721 67.48 94.3729 67.48 94.3736C67.48 94.3744 67.48 94.3751 67.48 94.3758C67.48 94.3766 67.48 94.3773 67.48 94.378C67.48 94.3788 67.48 94.3795 67.48 94.3802C67.48 94.381 67.48 94.3817 67.48 94.3824C67.48 94.3832 67.48 94.3839 67.48 94.3846C67.48 94.3854 67.48 94.3861 67.48 94.3868C67.48 94.3876 67.48 94.3883 67.48 94.389C67.48 94.3898 67.48 94.3905 67.48 94.3912C67.48 94.392 67.48 94.3927 67.48 94.3934C67.48 94.3942 67.48 94.3949 67.48 94.3956C67.48 94.3964 67.48 94.3971 67.48 94.3978C67.48 94.3985 67.48 94.3993 67.48 94.4H73.48C73.48 94.3993 73.48 94.3985 73.48 94.3978C73.48 94.3971 73.48 94.3964 73.48 94.3956C73.48 94.3949 73.48 94.3942 73.48 94.3934C73.48 94.3927 73.48 94.392 73.48 94.3912C73.48 94.3905 73.48 94.3898 73.48 94.389C73.48 94.3883 73.48 94.3876 73.48 94.3868C73.48 94.3861 73.48 94.3854 73.48 94.3846C73.48 94.3839 73.48 94.3832 73.48 94.3824C73.48 94.3817 73.48 94.381 73.48 94.3802C73.48 94.3795 73.48 94.3788 73.48 94.378C73.48 94.3773 73.48 94.3766 73.48 94.3758C73.48 94.3751 73.48 94.3744 73.48 94.3736C73.48 94.3729 73.48 94.3721 73.48 94.3714C73.48 94.3707 73.48 94.3699 73.48 94.3692C73.48 94.3685 73.48 94.3677 73.48 94.367C73.48 94.3662 73.48 94.3655 73.48 94.3648C73.48 94.364 73.48 94.3633 73.48 94.3625C73.48 94.3618 73.48 94.3611 73.48 94.3603C73.48 94.3596 73.48 94.3588 73.48 94.3581C73.48 94.3574 73.48 94.3566 73.48 94.3559C73.48 94.3551 73.48 94.3544 73.48 94.3537C73.48 94.3529 73.48 94.3522 73.48 94.3514C73.48 94.3507 73.48 94.3499 73.48 94.3492C73.48 94.3485 73.48 94.3477 73.48 94.347C73.48 94.3462 73.48 94.3455 73.48 94.3447C73.48 94.344 73.48 94.3433 73.48 94.3425C73.48 94.3418 73.48 94.341 73.48 94.3403C73.48 94.3395 73.48 94.3388 73.48 94.338C73.48 94.3373 73.48 94.3365 73.48 94.3358C73.48 94.335 73.48 94.3343 73.48 94.3336C73.48 94.3328 73.48 94.3321 73.48 94.3313C73.48 94.3306 73.48 94.3298 73.48 94.3291C73.48 94.3283 73.48 94.3276 73.48 94.3268C73.48 94.3261 73.48 94.3253 73.48 94.3246C73.48 94.3238 73.48 94.3231 73.48 94.3223C73.48 94.3216 73.48 94.3208 73.48 94.3201C73.48 94.3193 73.48 94.3186 73.48 94.3178C73.48 94.3171 73.48 94.3163 73.48 94.3156C73.48 94.3148 73.48 94.314 73.48 94.3133C73.48 94.3125 73.48 94.3118 73.48 94.311C73.48 94.3103 73.48 94.3095 73.48 94.3088C73.48 94.308 73.48 94.3073 73.48 94.3065C73.48 94.3058 73.48 94.305 73.48 94.3042C73.48 94.3035 73.48 94.3027 73.48 94.302C73.48 94.3012 73.48 94.3005 73.48 94.2997C73.48 94.299 73.48 94.2982 73.48 94.2974C73.48 94.2967 73.48 94.2959 73.48 94.2952C73.48 94.2944 73.48 94.2936 73.48 94.2929C73.48 94.2921 73.48 94.2914 73.48 94.2906C73.48 94.2899 73.48 94.2891 73.48 94.2883C73.48 94.2876 73.48 94.2868 73.48 94.2861C73.48 94.2853 73.48 94.2845 73.48 94.2838C73.48 94.283 73.48 94.2823 73.48 94.2815C73.48 94.2807 73.48 94.28 73.48 94.2792C73.48 94.2784 73.48 94.2777 73.48 94.2769C73.48 94.2762 73.48 94.2754 73.48 94.2746C73.48 94.2739 73.48 94.2731 73.48 94.2723C73.48 94.2716 73.48 94.2708 73.48 94.27C73.48 94.2693 73.48 94.2685 73.48 94.2677C73.48 94.267 73.48 94.2662 73.48 94.2655C73.48 94.2647 73.48 94.2639 73.48 94.2632C73.48 94.2624 73.48 94.2616 73.48 94.2609C73.48 94.2601 73.48 94.2593 73.48 94.2586C73.48 94.2578 73.48 94.257 73.48 94.2562C73.48 94.2555 73.48 94.2547 73.48 94.2539C73.48 94.2532 73.48 94.2524 73.48 94.2516C73.48 94.2509 73.48 94.2501 73.48 94.2493C73.48 94.2486 73.48 94.2478 73.48 94.247C73.48 94.2462 73.48 94.2455 73.48 94.2447C73.48 94.2439 73.48 94.2432 73.48 94.2424C73.48 94.2416 73.48 94.2408 73.48 94.2401C73.48 94.2393 73.48 94.2385 73.48 94.2378C73.48 94.237 73.48 94.2362 73.48 94.2354C73.48 94.2347 73.48 94.2339 73.48 94.2331C73.48 94.2323 73.48 94.2316 73.48 94.2308C73.48 94.23 73.48 94.2292 73.48 94.2285C73.48 94.2277 73.48 94.2269 73.48 94.2261C73.48 94.2254 73.48 94.2246 73.48 94.2238C73.48 94.223 73.48 94.2223 73.48 94.2215C73.48 94.2207 73.48 94.2199 73.48 94.2191C73.48 94.2184 73.48 94.2176 73.48 94.2168C73.48 94.216 73.48 94.2152 73.48 94.2145C73.48 94.2137 73.48 94.2129 73.48 94.2121C73.48 94.2113 73.48 94.2106 73.48 94.2098C73.48 94.209 73.48 94.2082 73.48 94.2074C73.48 94.2067 73.48 94.2059 73.48 94.2051C73.48 94.2043 73.48 94.2035 73.48 94.2028C73.48 94.202 73.48 94.2012 73.48 94.2004C73.48 94.1996 73.48 94.1988 73.48 94.1981C73.48 94.1973 73.48 94.1965 73.48 94.1957C73.48 94.1949 73.48 94.1941 73.48 94.1934C73.48 94.1926 73.48 94.1918 73.48 94.191C73.48 94.1902 73.48 94.1894 73.48 94.1886C73.48 94.1879 73.48 94.1871 73.48 94.1863C73.48 94.1855 73.48 94.1847 73.48 94.1839C73.48 94.1831 73.48 94.1823 73.48 94.1816C73.48 94.1808 73.48 94.18 73.48 94.1792C73.48 94.1784 73.48 94.1776 73.48 94.1768C73.48 94.176 73.48 94.1753 73.48 94.1745C73.48 94.1737 73.48 94.1729 73.48 94.1721C73.48 94.1713 73.48 94.1705 73.48 94.1697C73.48 94.1689 73.48 94.1681 73.48 94.1673C73.48 94.1666 73.48 94.1658 73.48 94.165C73.48 94.1642 73.48 94.1634 73.48 94.1626C73.48 94.1618 73.48 94.161 73.48 94.1602C73.48 94.1594 73.48 94.1586 73.48 94.1578C73.48 94.157 73.48 94.1562 73.48 94.1555C73.48 94.1547 73.48 94.1539 73.48 94.1531C73.48 94.1523 73.48 94.1515 73.48 94.1507C73.48 94.1499 73.48 94.1491 73.48 94.1483C73.48 94.1475 73.48 94.1467 73.48 94.1459C73.48 94.1451 73.48 94.1443 73.48 94.1435C73.48 94.1427 73.48 94.1419 73.48 94.1411C73.48 94.1403 73.48 94.1395 73.48 94.1387C73.48 94.1379 73.48 94.1371 73.48 94.1363C73.48 94.1355 73.48 94.1347 73.48 94.1339C73.48 94.1331 73.48 94.1323 73.48 94.1315C73.48 94.1307 73.48 94.1299 73.48 94.1291C73.48 94.1283 73.48 94.1275 73.48 94.1267C73.48 94.1259 73.48 94.1251 73.48 94.1243C73.48 94.1235 73.48 94.1227 73.48 94.1219C73.48 94.1211 73.48 94.1203 73.48 94.1195C73.48 94.1187 73.48 94.1179 73.48 94.1171C73.48 94.1163 73.48 94.1155 73.48 94.1147C73.48 94.1139 73.48 94.1131 73.48 94.1123C73.48 94.1115 73.48 94.1106 73.48 94.1098C73.48 94.109 73.48 94.1082 73.48 94.1074C73.48 94.1066 73.48 94.1058 73.48 94.105C73.48 94.1042 73.48 94.1034 73.48 94.1026C73.48 94.1018 73.48 94.101 73.48 94.1002C73.48 94.0993 73.48 94.0985 73.48 94.0977C73.48 94.0969 73.48 94.0961 73.48 94.0953C73.48 94.0945 73.48 94.0937 73.48 94.0929C73.48 94.0921 73.48 94.0912 73.48 94.0904C73.48 94.0896 73.48 94.0888 73.48 94.088C73.48 94.0872 73.48 94.0864 73.48 94.0856C73.48 94.0848 73.48 94.0839 73.48 94.0831C73.48 94.0823 73.48 94.0815 73.48 94.0807C73.48 94.0799 73.48 94.0791 73.48 94.0782C73.48 94.0774 73.48 94.0766 73.48 94.0758C73.48 94.075 73.48 94.0742 73.48 94.0734C73.48 94.0725 73.48 94.0717 73.48 94.0709C73.48 94.0701 73.48 94.0693 73.48 94.0685C73.48 94.0676 73.48 94.0668 73.48 94.066C73.48 94.0652 73.48 94.0644 73.48 94.0636C73.48 94.0627 73.48 94.0619 73.48 94.0611C73.48 94.0603 73.48 94.0595 73.48 94.0587C73.48 94.0578 73.48 94.057 73.48 94.0562C73.48 94.0554 73.48 94.0546 73.48 94.0537C73.48 94.0529 73.48 94.0521 73.48 94.0513C73.48 94.0505 73.48 94.0496 73.48 94.0488C73.48 94.048 73.48 94.0472 73.48 94.0463C73.48 94.0455 73.48 94.0447 73.48 94.0439C73.48 94.0431 73.48 94.0422 73.48 94.0414C73.48 94.0406 73.48 94.0398 73.48 94.0389C73.48 94.0381 73.48 94.0373 73.48 94.0365C73.48 94.0356 73.48 94.0348 73.48 94.034C73.48 94.0332 73.48 94.0323 73.48 94.0315C73.48 94.0307 73.48 94.0299 73.48 94.029C73.48 94.0282 73.48 94.0274 73.48 94.0266C73.48 94.0257 73.48 94.0249 73.48 94.0241C73.48 94.0233 73.48 94.0224 73.48 94.0216C73.48 94.0208 73.48 94.0199 73.48 94.0191C73.48 94.0183 73.48 94.0175 73.48 94.0166C73.48 94.0158 73.48 94.015 73.48 94.0141C73.48 94.0133 73.48 94.0125 73.48 94.0116C73.48 94.0108 73.48 94.01 73.48 94.0092C73.48 94.0083 73.48 94.0075 73.48 94.0067C73.48 94.0058 73.48 94.005 73.48 94.0042C73.48 94.0033 73.48 94.0025 73.48 94.0017C73.48 94.0008 73.48 94 73.48 93.9992C73.48 93.9983 73.48 93.9975 73.48 93.9967C73.48 93.9958 73.48 93.995 73.48 93.9942C73.48 93.9933 73.48 93.9925 73.48 93.9917C73.48 93.9908 73.48 93.99 73.48 93.9891C73.48 93.9883 73.48 93.9875 73.48 93.9866C73.48 93.9858 73.48 93.985 73.48 93.9841C73.48 93.9833 73.48 93.9825 73.48 93.9816C73.48 93.9808 73.48 93.9799 73.48 93.9791C73.48 93.9783 73.48 93.9774 73.48 93.9766C73.48 93.9757 73.48 93.9749 73.48 93.9741C73.48 93.9732 73.48 93.9724 73.48 93.9715C73.48 93.9707 73.48 93.9699 73.48 93.969C73.48 93.9682 73.48 93.9673 73.48 93.9665C73.48 93.9657 73.48 93.9648 73.48 93.964C73.48 93.9631 73.48 93.9623 73.48 93.9615C73.48 93.9606 73.48 93.9598 73.48 93.9589C73.48 93.9581 73.48 93.9572 73.48 93.9564C73.48 93.9555 73.48 93.9547 73.48 93.9539C73.48 93.953 73.48 93.9522 73.48 93.9513C73.48 93.9505 73.48 93.9496 73.48 93.9488C73.48 93.9479 73.48 93.9471 73.48 93.9462C73.48 93.9454 73.48 93.9446 73.48 93.9437C73.48 93.9429 73.48 93.942 73.48 93.9412C73.48 93.9403 73.48 93.9395 73.48 93.9386C73.48 93.9378 73.48 93.9369 73.48 93.9361C73.48 93.9352 73.48 93.9344 73.48 93.9335C73.48 93.9327 73.48 93.9318 73.48 93.931C73.48 93.9301 73.48 93.9293 73.48 93.9284C73.48 93.9276 73.48 93.9267 73.48 93.9259C73.48 93.925 73.48 93.9242 73.48 93.9233C73.48 93.9225 73.48 93.9216 73.48 93.9208C73.48 93.9199 73.48 93.9191 73.48 93.9182C73.48 93.9174 73.48 93.9165 73.48 93.9156C73.48 93.9148 73.48 93.9139 73.48 93.9131C73.48 93.9122 73.48 93.9114 73.48 93.9105C73.48 93.9097 73.48 93.9088 73.48 93.908C73.48 93.9071 73.48 93.9062 73.48 93.9054C73.48 93.9045 73.48 93.9037 73.48 93.9028C73.48 93.902 73.48 93.9011 73.48 93.9002C73.48 93.8994 73.48 93.8985 73.48 93.8977C73.48 93.8968 73.48 93.896 73.48 93.8951C73.48 93.8942 73.48 93.8934 73.48 93.8925C73.48 93.8917 73.48 93.8908 73.48 93.8899C73.48 93.8891 73.48 93.8882 73.48 93.8874C73.48 93.8865 73.48 93.8856 73.48 93.8848C73.48 93.8839 73.48 93.8831 73.48 93.8822C73.48 93.8813 73.48 93.8805 73.48 93.8796C73.48 93.8788 73.48 93.8779 73.48 93.877C73.48 93.8762 73.48 93.8753 73.48 93.8744C73.48 93.8736 73.48 93.8727 73.48 93.8718C73.48 93.871 73.48 93.8701 73.48 93.8693C73.48 93.8684 73.48 93.8675 73.48 93.8667C73.48 93.8658 73.48 93.8649 73.48 93.8641C73.48 93.8632 73.48 93.8623 73.48 93.8615C73.48 93.8606 73.48 93.8597 73.48 93.8589C73.48 93.858 73.48 93.8571 73.48 93.8563C73.48 93.8554 73.48 93.8545 73.48 93.8537C73.48 93.8528 73.48 93.8519 73.48 93.8511C73.48 93.8502 73.48 93.8493 73.48 93.8484C73.48 93.8476 73.48 93.8467 73.48 93.8458C73.48 93.845 73.48 93.8441 73.48 93.8432C73.48 93.8424 73.48 93.8415 73.48 93.8406C73.48 93.8397 73.48 93.8389 73.48 93.838C73.48 93.8371 73.48 93.8362 73.48 93.8354C73.48 93.8345 73.48 93.8336 73.48 93.8328C73.48 93.8319 73.48 93.831 73.48 93.8301C73.48 93.8293 73.48 93.8284 73.48 93.8275C73.48 93.8266 73.48 93.8258 73.48 93.8249C73.48 93.824 73.48 93.8231 73.48 93.8223C73.48 93.8214 73.48 93.8205 73.48 93.8196C73.48 93.8188 73.48 93.8179 73.48 93.817C73.48 93.8161 73.48 93.8153 73.48 93.8144C73.48 93.8135 73.48 93.8126 73.48 93.8117C73.48 93.8109 73.48 93.81 73.48 93.8091C73.48 93.8082 73.48 93.8073 73.48 93.8065C73.48 93.8056 73.48 93.8047 73.48 93.8038C73.48 93.803 73.48 93.8021 73.48 93.8012C73.48 93.8003 73.48 93.7994 73.48 93.7985C73.48 93.7977 73.48 93.7968 73.48 93.7959C73.48 93.795 73.48 93.7941 73.48 93.7933C73.48 93.7924 73.48 93.7915 73.48 93.7906C73.48 93.7897 73.48 93.7888 73.48 93.788C73.48 93.7871 73.48 93.7862 73.48 93.7853C73.48 93.7844 73.48 93.7835 73.48 93.7827C73.48 93.7818 73.48 93.7809 73.48 93.78C73.48 93.7791 73.48 93.7782 73.48 93.7773C73.48 93.7765 73.48 93.7756 73.48 93.7747C73.48 93.7738 73.48 93.7729 73.48 93.772C73.48 93.7711 73.48 93.7702 73.48 93.7694C73.48 93.7685 73.48 93.7676 73.48 93.7667C73.48 93.7658 73.48 93.7649 73.48 93.764C73.48 93.7631 73.48 93.7623 73.48 93.7614C73.48 93.7605 73.48 93.7596 73.48 93.7587C73.48 93.7578 73.48 93.7569 73.48 93.756C73.48 93.7551 73.48 93.7542 73.48 93.7533C73.48 93.7525 73.48 93.7516 73.48 93.7507C73.48 93.7498 73.48 93.7489 73.48 93.748C73.48 93.7471 73.48 93.7462 73.48 93.7453C73.48 93.7444 73.48 93.7435 73.48 93.7426C73.48 93.7417 73.48 93.7408 73.48 93.7399C73.48 93.7391 73.48 93.7382 73.48 93.7373C73.48 93.7364 73.48 93.7355 73.48 93.7346C73.48 93.7337 73.48 93.7328 73.48 93.7319C73.48 93.731 73.48 93.7301 73.48 93.7292C73.48 93.7283 73.48 93.7274 73.48 93.7265C73.48 93.7256 73.48 93.7247 73.48 93.7238C73.48 93.7229 73.48 93.722 73.48 93.7211C73.48 93.7202 73.48 93.7193 73.48 93.7184C73.48 93.7175 73.48 93.7166 73.48 93.7157C73.48 93.7148 73.48 93.7139 73.48 93.713C73.48 93.7121 73.48 93.7112 73.48 93.7103C73.48 93.7094 73.48 93.7085 73.48 93.7076C73.48 93.7067 73.48 93.7058 73.48 93.7049C73.48 93.704 73.48 93.7031 73.48 93.7022C73.48 93.7013 73.48 93.7004 73.48 93.6995C73.48 93.6986 73.48 93.6977 73.48 93.6968C73.48 93.6959 73.48 93.695 73.48 93.6941C73.48 93.6932 73.48 93.6923 73.48 93.6913C73.48 93.6904 73.48 93.6895 73.48 93.6886C73.48 93.6877 73.48 93.6868 73.48 93.6859C73.48 93.685 73.48 93.6841 73.48 93.6832C73.48 93.6823 73.48 93.6814 73.48 93.6805C73.48 93.6796 73.48 93.6786 73.48 93.6777C73.48 93.6768 73.48 93.6759 73.48 93.675C73.48 93.6741 73.48 93.6732 73.48 93.6723C73.48 93.6714 73.48 93.6705 73.48 93.6696C73.48 93.6686 73.48 93.6677 73.48 93.6668C73.48 93.6659 73.48 93.665 73.48 93.6641C73.48 93.6632 73.48 93.6623 73.48 93.6614C73.48 93.6604 73.48 93.6595 73.48 93.6586C73.48 93.6577 73.48 93.6568 73.48 93.6559C73.48 93.655 73.48 93.654 73.48 93.6531C73.48 93.6522 73.48 93.6513 73.48 93.6504C73.48 93.6495 73.48 93.6486 73.48 93.6476C73.48 93.6467 73.48 93.6458 73.48 93.6449C73.48 93.644 73.48 93.6431 73.48 93.6421C73.48 93.6412 73.48 93.6403 73.48 93.6394C73.48 93.6385 73.48 93.6376 73.48 93.6366C73.48 93.6357 73.48 93.6348 73.48 93.6339C73.48 93.633 73.48 93.6321 73.48 93.6311C73.48 93.6302 73.48 93.6293 73.48 93.6284C73.48 93.6275 73.48 93.6265 73.48 93.6256C73.48 93.6247 73.48 93.6238 73.48 93.6229C73.48 93.6219 73.48 93.621 73.48 93.6201C73.48 93.6192 73.48 93.6183 73.48 93.6173C73.48 93.6164 73.48 93.6155 73.48 93.6146C73.48 93.6136 73.48 93.6127 73.48 93.6118C73.48 93.6109 73.48 93.6099 73.48 93.609C73.48 93.6081 73.48 93.6072 73.48 93.6062C73.48 93.6053 73.48 93.6044 73.48 93.6035C73.48 93.6025 73.48 93.6016 73.48 93.6007C73.48 93.5998 73.48 93.5988 73.48 93.5979C73.48 93.597 73.48 93.5961 73.48 93.5951C73.48 93.5942 73.48 93.5933 73.48 93.5924C73.48 93.5914 73.48 93.5905 73.48 93.5896C73.48 93.5886 73.48 93.5877 73.48 93.5868C73.48 93.5859 73.48 93.5849 73.48 93.584C73.48 93.5831 73.48 93.5821 73.48 93.5812C73.48 93.5803 73.48 93.5794 73.48 93.5784C73.48 93.5775 73.48 93.5766 73.48 93.5756C73.48 93.5747 73.48 93.5738 73.48 93.5728C73.48 93.5719 73.48 93.571 73.48 93.57C73.48 93.5691 73.48 93.5682 73.48 93.5672C73.48 93.5663 73.48 93.5654 73.48 93.5644C73.48 93.5635 73.48 93.5626 73.48 93.5616C73.48 93.5607 73.48 93.5598 73.48 93.5588C73.48 93.5579 73.48 93.557 73.48 93.556C73.48 93.5551 73.48 93.5542 73.48 93.5532C73.48 93.5523 73.48 93.5514 73.48 93.5504C73.48 93.5495 73.48 93.5485 73.48 93.5476C73.48 93.5467 73.48 93.5457 73.48 93.5448C73.48 93.5439 73.48 93.5429 73.48 93.542C73.48 93.541 73.48 93.5401 73.48 93.5392C73.48 93.5382 73.48 93.5373 73.48 93.5363C73.48 93.5354 73.48 93.5345 73.48 93.5335C73.48 93.5326 73.48 93.5316 73.48 93.5307C73.48 93.5298 73.48 93.5288 73.48 93.5279C73.48 93.5269 73.48 93.526 73.48 93.525C73.48 93.5241 73.48 93.5232 73.48 93.5222C73.48 93.5213 73.48 93.5203 73.48 93.5194C73.48 93.5184 73.48 93.5175 73.48 93.5166C73.48 93.5156 73.48 93.5147 73.48 93.5137C73.48 93.5128 73.48 93.5118 73.48 93.5109C73.48 93.5099 73.48 93.509 73.48 93.5081C73.48 93.5071 73.48 93.5062 73.48 93.5052C73.48 93.5043 73.48 93.5033 73.48 93.5024C73.48 93.5014 73.48 93.5005 73.48 93.4995C73.48 93.4986 73.48 93.4976 73.48 93.4967C73.48 93.4957 73.48 93.4948 73.48 93.4938C73.48 93.4929 73.48 93.4919 73.48 93.491C73.48 93.49 73.48 93.4891 73.48 93.4881C73.48 93.4872 73.48 93.4862 73.48 93.4853C73.48 93.4843 73.48 93.4834 73.48 93.4824C73.48 93.4815 73.48 93.4805 73.48 93.4796C73.48 93.4786 73.48 93.4777 73.48 93.4767C73.48 93.4758 73.48 93.4748 73.48 93.4739C73.48 93.4729 73.48 93.472 73.48 93.471C73.48 93.4701 73.48 93.4691 73.48 93.4682C73.48 93.4672 73.48 93.4662 73.48 93.4653C73.48 93.4643 73.48 93.4634 73.48 93.4624C73.48 93.4615 73.48 93.4605 73.48 93.4596C73.48 93.4586 73.48 93.4576 73.48 93.4567C73.48 93.4557 73.48 93.4548 73.48 93.4538C73.48 93.4529 73.48 93.4519 73.48 93.4509C73.48 93.45 73.48 93.449 73.48 93.4481C73.48 93.4471 73.48 93.4461 73.48 93.4452C73.48 93.4442 73.48 93.4433 73.48 93.4423C73.48 93.4414 73.48 93.4404 73.48 93.4394C73.48 93.4385 73.48 93.4375 73.48 93.4365C73.48 93.4356 73.48 93.4346 73.48 93.4337C73.48 93.4327 73.48 93.4317 73.48 93.4308C73.48 93.4298 73.48 93.4289 73.48 93.4279C73.48 93.4269 73.48 93.426 73.48 93.425C73.48 93.424 73.48 93.4231 73.48 93.4221C73.48 93.4211 73.48 93.4202 73.48 93.4192C73.48 93.4182 73.48 93.4173 73.48 93.4163C73.48 93.4154 73.48 93.4144 73.48 93.4134C73.48 93.4125 73.48 93.4115 73.48 93.4105C73.48 93.4096 73.48 93.4086 73.48 93.4076C73.48 93.4067 73.48 93.4057 73.48 93.4047C73.48 93.4038 73.48 93.4028 73.48 93.4018C73.48 93.4008 73.48 93.3999 73.48 93.3989C73.48 93.3979 73.48 93.397 73.48 93.396C73.48 93.395 73.48 93.3941 73.48 93.3931C73.48 93.3921 73.48 93.3912 73.48 93.3902C73.48 93.3892 73.48 93.3882 73.48 93.3873C73.48 93.3863 73.48 93.3853 73.48 93.3844C73.48 93.3834 73.48 93.3824 73.48 93.3814C73.48 93.3805 73.48 93.3795 73.48 93.3785C73.48 93.3775 73.48 93.3766 73.48 93.3756C73.48 93.3746 73.48 93.3736 73.48 93.3727C73.48 93.3717 73.48 93.3707 73.48 93.3697C73.48 93.3688 73.48 93.3678 73.48 93.3668C73.48 93.3658 73.48 93.3649 73.48 93.3639C73.48 93.3629 73.48 93.3619 73.48 93.361C73.48 93.36 73.48 93.359 73.48 93.358C73.48 93.3571 73.48 93.3561 73.48 93.3551C73.48 93.3541 73.48 93.3531 73.48 93.3522C73.48 93.3512 73.48 93.3502 73.48 93.3492C73.48 93.3482 73.48 93.3473 73.48 93.3463C73.48 93.3453 73.48 93.3443 73.48 93.3433C73.48 93.3424 73.48 93.3414 73.48 93.3404C73.48 93.3394 73.48 93.3384 73.48 93.3375C73.48 93.3365 73.48 93.3355 73.48 93.3345C73.48 93.3335 73.48 93.3325 73.48 93.3316C73.48 93.3306 73.48 93.3296 73.48 93.3286C73.48 93.3276 73.48 93.3266 73.48 93.3257C73.48 93.3247 73.48 93.3237 73.48 93.3227C73.48 93.3217 73.48 93.3207 73.48 93.3198C73.48 93.3188 73.48 93.3178 73.48 93.3168C73.48 93.3158 73.48 93.3148 73.48 93.3138C73.48 93.3128 73.48 93.3119 73.48 93.3109C73.48 93.3099 73.48 93.3089 73.48 93.3079C73.48 93.3069 73.48 93.3059 73.48 93.3049C73.48 93.304 73.48 93.303 73.48 93.302C73.48 93.301 73.48 93.3 73.48 93.299C73.48 93.298 73.48 93.297 73.48 93.296C73.48 93.295 73.48 93.2941 73.48 93.2931C73.48 93.2921 73.48 93.2911 73.48 93.2901C73.48 93.2891 73.48 93.2881 73.48 93.2871C73.48 93.2861 73.48 93.2851 73.48 93.2841C73.48 93.2831 73.48 93.2822 73.48 93.2812C73.48 93.2802 73.48 93.2792 73.48 93.2782C73.48 93.2772 73.48 93.2762 73.48 93.2752C73.48 93.2742 73.48 93.2732 73.48 93.2722C73.48 93.2712 73.48 93.2702 73.48 93.2692C73.48 93.2682 73.48 93.2672 73.48 93.2662C73.48 93.2652 73.48 93.2642 73.48 93.2632C73.48 93.2622 73.48 93.2613 73.48 93.2603C73.48 93.2593 73.48 93.2583 73.48 93.2573C73.48 93.2563 73.48 93.2553 73.48 93.2543C73.48 93.2533 73.48 93.2523 73.48 93.2513C73.48 93.2503 73.48 93.2493 73.48 93.2483C73.48 93.2473 73.48 93.2463 73.48 93.2453C73.48 93.2443 73.48 93.2433 73.48 93.2423C73.48 93.2413 73.48 93.2403 73.48 93.2393C73.48 93.2383 73.48 93.2373 73.48 93.2362C73.48 93.2352 73.48 93.2342 73.48 93.2332C73.48 93.2322 73.48 93.2312 73.48 93.2302C73.48 93.2292 73.48 93.2282 73.48 93.2272C73.48 93.2262 73.48 93.2252 73.48 93.2242C73.48 93.2232 73.48 93.2222 73.48 93.2212C73.48 93.2202 73.48 93.2192 73.48 93.2182C73.48 93.2172 73.48 93.2162 73.48 93.2151C73.48 93.2141 73.48 93.2131 73.48 93.2121C73.48 93.2111 73.48 93.2101 73.48 93.2091C73.48 93.2081 73.48 93.2071 73.48 93.2061C73.48 93.2051 73.48 93.2041 73.48 93.2031C73.48 93.202 73.48 93.201 73.48 93.2C73.48 93.199 73.48 93.198 73.48 93.197C73.48 93.196 73.48 93.195 73.48 93.194C73.48 93.1929 73.48 93.1919 73.48 93.1909C73.48 93.1899 73.48 93.1889 73.48 93.1879C73.48 93.1869 73.48 93.1859 73.48 93.1849C73.48 93.1838 73.48 93.1828 73.48 93.1818C73.48 93.1808 73.48 93.1798 73.48 93.1788C73.48 93.1778 73.48 93.1767 73.48 93.1757C73.48 93.1747 73.48 93.1737 73.48 93.1727C73.48 93.1717 73.48 93.1707 73.48 93.1696C73.48 93.1686 73.48 93.1676 73.48 93.1666C73.48 93.1656 73.48 93.1646 73.48 93.1635C73.48 93.1625 73.48 93.1615 73.48 93.1605C73.48 93.1595 73.48 93.1584 73.48 93.1574C73.48 93.1564 73.48 93.1554 73.48 93.1544C73.48 93.1534 73.48 93.1523 73.48 93.1513C73.48 93.1503 73.48 93.1493 73.48 93.1483C73.48 93.1472 73.48 93.1462 73.48 93.1452C73.48 93.1442 73.48 93.1431 73.48 93.1421C73.48 93.1411 73.48 93.1401 73.48 93.1391C73.48 93.138 73.48 93.137 73.48 93.136C73.48 93.135 73.48 93.1339 73.48 93.1329C73.48 93.1319 73.48 93.1309 73.48 93.1299C73.48 93.1288 73.48 93.1278 73.48 93.1268C73.48 93.1258 73.48 93.1247 73.48 93.1237C73.48 93.1227 73.48 93.1217 73.48 93.1206C73.48 93.1196 73.48 93.1186 73.48 93.1176C73.48 93.1165 73.48 93.1155 73.48 93.1145C73.48 93.1134 73.48 93.1124 73.48 93.1114C73.48 93.1104 73.48 93.1093 73.48 93.1083C73.48 93.1073 73.48 93.1062 73.48 93.1052C73.48 93.1042 73.48 93.1032 73.48 93.1021C73.48 93.1011 73.48 93.1001 73.48 93.099C73.48 93.098 73.48 93.097 73.48 93.096C73.48 93.0949 73.48 93.0939 73.48 93.0929C73.48 93.0918 73.48 93.0908 73.48 93.0898C73.48 93.0887 73.48 93.0877 73.48 93.0867C73.48 93.0856 73.48 93.0846 73.48 93.0836C73.48 93.0825 73.48 93.0815 73.48 93.0805C73.48 93.0794 73.48 93.0784 73.48 93.0774C73.48 93.0763 73.48 93.0753 73.48 93.0743C73.48 93.0732 73.48 93.0722 73.48 93.0712C73.48 93.0701 73.48 93.0691 73.48 93.068C73.48 93.067 73.48 93.066 73.48 93.0649C73.48 93.0639 73.48 93.0629 73.48 93.0618C73.48 93.0608 73.48 93.0598 73.48 93.0587C73.48 93.0577 73.48 93.0566 73.48 93.0556C73.48 93.0546 73.48 93.0535 73.48 93.0525C73.48 93.0514 73.48 93.0504 73.48 93.0494C73.48 93.0483 73.48 93.0473 73.48 93.0462C73.48 93.0452 73.48 93.0442 73.48 93.0431C73.48 93.0421 73.48 93.041 73.48 93.04H67.48ZM67.48 94.4C67.48 97.18 67.8905 99.715 68.8659 101.875L74.3341 99.4052C73.8161 98.2583 73.48 96.6333 73.48 94.4H67.48ZM68.9167 101.982C69.8723 103.893 71.106 105.53 72.6603 106.802L76.4597 102.158C75.6673 101.51 74.9277 100.587 74.2833 99.2984L68.9167 101.982ZM72.6603 106.802C74.1205 107.997 75.7432 108.881 77.5177 109.427L79.2823 103.693C78.2835 103.385 77.3462 102.883 76.4597 102.158L72.6603 106.802ZM77.6471 109.464C79.2943 109.891 80.9089 110.12 82.48 110.12V104.12C81.4911 104.12 80.3857 103.976 79.1529 103.656L77.6471 109.464ZM82.48 110.12C83.5353 110.12 84.9189 109.992 86.5565 109.774L85.7635 103.826C84.2011 104.035 83.1314 104.12 82.48 104.12V110.12ZM86.6377 109.762C88.6113 109.443 90.528 108.81 92.3816 107.883L89.6984 102.517C88.352 103.19 87.0154 103.623 85.6823 103.838L86.6377 109.762ZM92.3816 107.883C94.4021 106.873 96.1292 105.433 97.559 103.613L92.841 99.9065C91.9242 101.073 90.8779 101.927 89.6984 102.517L92.3816 107.883ZM97.5505 103.624C99.3085 101.408 100.04 98.634 100.04 95.6H94.04C94.04 97.686 93.5448 99.0191 92.8495 99.8958L97.5505 103.624ZM100.04 95.6C100.04 92.0361 99.0383 88.859 96.7769 86.3787L92.3431 90.4213C93.3884 91.5677 94.04 93.1905 94.04 95.6H100.04ZM96.8378 86.4476C94.9596 84.2564 92.6177 82.455 89.8677 81.0202L87.0923 86.3398C89.2489 87.465 90.9604 88.8103 92.2822 90.3524L96.8378 86.4476ZM89.9125 81.0441C87.3217 79.636 84.5231 78.3783 81.5219 77.2668L79.4381 82.8932C82.1969 83.915 84.7317 85.0573 87.0475 86.3159L89.9125 81.0441ZM81.5673 77.284C78.8545 76.229 76.3608 74.9802 74.0799 73.5422L70.8801 78.6178C73.5058 80.2731 76.3455 81.691 79.3927 82.876L81.5673 77.284ZM74.0799 73.5422C71.9435 72.1954 70.1759 70.5386 68.7535 68.5656L63.8865 72.0744C65.7707 74.688 68.1098 76.8713 70.8801 78.6178L74.0799 73.5422ZM68.7804 68.6035C67.6275 66.9509 66.92 64.618 66.92 61.36H60.92C60.92 65.462 61.8125 69.1024 63.8596 72.0365L68.7804 68.6035ZM66.92 61.36C66.92 58.1886 67.583 55.9138 68.6562 54.3041L63.6638 50.9759C61.7503 53.8462 60.92 57.3847 60.92 61.36H66.92ZM68.6287 54.3446C69.9207 52.4734 71.4554 51.1081 73.232 50.1775L70.448 44.8625C67.7446 46.2786 65.4926 48.3266 63.6913 50.9354L68.6287 54.3446ZM73.2809 50.1513C75.23 49.0839 77.2867 48.368 79.4634 47.9975L78.4566 42.0825C75.62 42.5654 72.93 43.5027 70.3991 44.8887L73.2809 50.1513ZM79.4532 47.9992C81.8883 47.5933 84.0398 47.4 85.92 47.4V41.4C83.6402 41.4 81.1517 41.6333 78.4668 42.0808L79.4532 47.9992ZM85.92 47.4C88.4469 47.4 89.9599 47.6679 90.7361 47.9815C91.0973 48.1275 91.1152 48.2113 91.0309 48.1091C90.9039 47.9553 90.84 47.7418 90.84 47.6H96.84C96.84 46.3915 96.4461 45.2447 95.6591 44.2908C94.9148 43.3886 93.9427 42.8059 92.9839 42.4185C91.1201 41.6654 88.6731 41.4 85.92 41.4V47.4ZM93.84 50.6C94.7204 50.6 95.6439 50.7047 96.6151 50.9254L97.9449 45.0746C96.5694 44.762 95.1996 44.6 93.84 44.6V50.6ZM96.6427 50.9315C97.4906 51.1158 98.1981 51.4348 98.8035 51.872L102.316 47.008C101.002 46.0585 99.5228 45.4175 97.9173 45.0685L96.6427 50.9315ZM98.8959 51.9362C99.3648 52.2487 99.811 52.7302 100.197 53.5016L105.563 50.8184C104.776 49.2431 103.675 47.9113 102.224 46.9438L98.8959 51.9362ZM100.275 53.6484C100.572 54.1679 100.84 55.068 100.84 56.56H106.84C106.84 54.4254 106.468 52.3921 105.485 50.6716L100.275 53.6484Z" fill="black" mask="url(#path-1-outside-1_2032_103)"/>
<mask id="path-3-outside-2_2032_103" maskUnits="userSpaceOnUse" x="14" y="4" width="50" height="88" fill="black">
<rect fill="white" x="14" y="4" width="50" height="88"/>
<path d="M32.08 64.92C32.08 67.16 32.5333 69.2933 33.44 71.32C34.3467 73.3467 35.5467 75.1067 37.04 76.6C38.5333 78.1467 40.24 79.3467 42.16 80.2C44.08 81.1067 46.08 81.56 48.16 81.56C50.0267 81.56 51.5733 81.0533 52.8 80.04C54.0267 79.0267 54.7733 77.24 55.04 74.68L55.28 74.44C57.1467 74.92 58.4533 75.6667 59.2 76.68C60 77.6933 60.4 78.7867 60.4 79.96C60.4 81.4 59.9733 82.3867 59.12 82.92C58.32 83.5067 57.5467 83.9333 56.8 84.2C56.8 85.16 56.56 85.9067 56.08 86.44C55.6 87.0267 55.0133 87.4533 54.32 87.72C53.68 88.04 52.96 88.2267 52.16 88.28C51.4133 88.3867 50.7467 88.44 50.16 88.44C47.92 88.44 45.8667 88.04 44 87.24C42.1867 86.4933 40.48 85.56 38.88 84.44C37.28 83.32 35.76 82.0667 34.32 80.68C32.88 79.3467 31.4133 78.12 29.92 77C28.48 75.88 26.96 74.92 25.36 74.12C23.8133 73.3733 22.1067 73 20.24 73H17.76V69.64C18.4533 69.64 19.2267 69.6133 20.08 69.56C20.9333 69.4533 21.7067 69.1867 22.4 68.76C23.0933 68.3333 23.68 67.6667 24.16 66.76C24.64 65.8 24.88 64.4667 24.88 62.76V15.88C24.88 14.2267 24.24 12.9733 22.96 12.12C21.7333 11.2133 20 10.76 17.76 10.76C17.76 9.85333 18.08 9.08 18.72 8.44C19.36 7.74666 20.48 7.4 22.08 7.4C23.4667 7.4 24.6933 7.64 25.76 8.12C26.88 8.6 27.7867 9.18666 28.48 9.88C29.1733 9.18666 30.0533 8.6 31.12 8.12C32.24 7.64 33.4933 7.4 34.88 7.4C36.48 7.4 37.6 7.74666 38.24 8.44C38.88 9.08 39.2 9.85333 39.2 10.76C37.0133 10.76 35.28 11.2133 34 12.12C32.72 12.9733 32.08 14.2267 32.08 15.88V64.92Z"/>
</mask>
<path d="M32.08 64.92C32.08 67.16 32.5333 69.2933 33.44 71.32C34.3467 73.3467 35.5467 75.1067 37.04 76.6C38.5333 78.1467 40.24 79.3467 42.16 80.2C44.08 81.1067 46.08 81.56 48.16 81.56C50.0267 81.56 51.5733 81.0533 52.8 80.04C54.0267 79.0267 54.7733 77.24 55.04 74.68L55.28 74.44C57.1467 74.92 58.4533 75.6667 59.2 76.68C60 77.6933 60.4 78.7867 60.4 79.96C60.4 81.4 59.9733 82.3867 59.12 82.92C58.32 83.5067 57.5467 83.9333 56.8 84.2C56.8 85.16 56.56 85.9067 56.08 86.44C55.6 87.0267 55.0133 87.4533 54.32 87.72C53.68 88.04 52.96 88.2267 52.16 88.28C51.4133 88.3867 50.7467 88.44 50.16 88.44C47.92 88.44 45.8667 88.04 44 87.24C42.1867 86.4933 40.48 85.56 38.88 84.44C37.28 83.32 35.76 82.0667 34.32 80.68C32.88 79.3467 31.4133 78.12 29.92 77C28.48 75.88 26.96 74.92 25.36 74.12C23.8133 73.3733 22.1067 73 20.24 73H17.76V69.64C18.4533 69.64 19.2267 69.6133 20.08 69.56C20.9333 69.4533 21.7067 69.1867 22.4 68.76C23.0933 68.3333 23.68 67.6667 24.16 66.76C24.64 65.8 24.88 64.4667 24.88 62.76V15.88C24.88 14.2267 24.24 12.9733 22.96 12.12C21.7333 11.2133 20 10.76 17.76 10.76C17.76 9.85333 18.08 9.08 18.72 8.44C19.36 7.74666 20.48 7.4 22.08 7.4C23.4667 7.4 24.6933 7.64 25.76 8.12C26.88 8.6 27.7867 9.18666 28.48 9.88C29.1733 9.18666 30.0533 8.6 31.12 8.12C32.24 7.64 33.4933 7.4 34.88 7.4C36.48 7.4 37.6 7.74666 38.24 8.44C38.88 9.08 39.2 9.85333 39.2 10.76C37.0133 10.76 35.28 11.2133 34 12.12C32.72 12.9733 32.08 14.2267 32.08 15.88V64.92Z" fill="#1BBF00"/>
<path d="M33.44 71.32L36.1785 70.0949L33.44 71.32ZM37.04 76.6L39.1982 74.5162L39.1799 74.4973L39.1613 74.4787L37.04 76.6ZM42.16 80.2L43.441 77.4873L43.4099 77.4726L43.3784 77.4586L42.16 80.2ZM52.8 80.04L54.7106 82.3529L52.8 80.04ZM55.04 74.68L52.9187 72.5587L52.1664 73.311L52.0561 74.3692L55.04 74.68ZM55.28 74.44L56.0271 71.5345L54.3692 71.1082L53.1587 72.3187L55.28 74.44ZM59.2 76.68L56.7848 78.4596L56.8144 78.4998L56.8454 78.5389L59.2 76.68ZM59.12 82.92L57.53 80.376L57.4356 80.435L57.3459 80.5008L59.12 82.92ZM56.8 84.2L55.791 81.3748L53.8 82.0858V84.2H56.8ZM56.08 86.44L53.8501 84.4331L53.8029 84.4856L53.7581 84.5403L56.08 86.44ZM54.32 87.72L53.2431 84.92L53.1079 84.972L52.9784 85.0367L54.32 87.72ZM52.16 88.28L51.9604 85.2866L51.8476 85.2942L51.7357 85.3102L52.16 88.28ZM44 87.24L45.1818 84.4826L45.1621 84.4741L45.1423 84.466L44 87.24ZM34.32 80.68L36.4009 78.519L36.3798 78.4987L36.3582 78.4787L34.32 80.68ZM29.92 77L28.0782 79.3681L28.099 79.3842L28.12 79.4L29.92 77ZM25.36 74.12L26.7016 71.4367L26.683 71.4274L26.6642 71.4183L25.36 74.12ZM17.76 73H14.76V76H17.76V73ZM17.76 69.64V66.64H14.76V69.64H17.76ZM20.08 69.56L20.2671 72.5542L20.3599 72.5484L20.4521 72.5368L20.08 69.56ZM22.4 68.76L20.8277 66.205L20.8277 66.205L22.4 68.76ZM24.16 66.76L26.8114 68.1637L26.8277 68.1328L26.8433 68.1016L24.16 66.76ZM22.96 12.12L21.1768 14.5325L21.2353 14.5758L21.2959 14.6161L22.96 12.12ZM17.76 10.76H14.76V13.76H17.76V10.76ZM18.72 8.44L20.8413 10.5613L20.8837 10.5189L20.9244 10.4748L18.72 8.44ZM25.76 8.12L24.5289 10.8558L24.5535 10.8668L24.5782 10.8774L25.76 8.12ZM28.48 9.88L26.3587 12.0013L28.48 14.1226L30.6013 12.0013L28.48 9.88ZM31.12 8.12L29.9382 5.36256L29.9135 5.37317L29.8889 5.38423L31.12 8.12ZM38.24 8.44L36.0356 10.4748L36.0763 10.5189L36.1187 10.5613L38.24 8.44ZM39.2 10.76V13.76H42.2V10.76H39.2ZM34 12.12L35.6641 14.6161L35.6994 14.5926L35.7341 14.5681L34 12.12ZM29.08 64.92C29.08 67.5783 29.6209 70.1295 30.7015 72.5451L36.1785 70.0949C35.4458 68.4572 35.08 66.7417 35.08 64.92H29.08ZM30.7015 72.5451C31.7498 74.8883 33.1536 76.9563 34.9187 78.7213L39.1613 74.4787C37.9397 73.2571 36.9435 71.805 36.1785 70.0949L30.7015 72.5451ZM34.8818 78.6838C36.6368 80.5015 38.6607 81.9277 40.9416 82.9414L43.3784 77.4586C41.8193 76.7656 40.4299 75.7919 39.1982 74.5162L34.8818 78.6838ZM40.879 82.9127C43.1909 84.0045 45.6276 84.56 48.16 84.56V78.56C46.5324 78.56 44.9691 78.2088 43.441 77.4873L40.879 82.9127ZM48.16 84.56C50.5974 84.56 52.8562 83.8848 54.7106 82.3529L50.8894 77.7271C50.2905 78.2218 49.4559 78.56 48.16 78.56V84.56ZM54.7106 82.3529C56.8261 80.6054 57.7238 77.8715 58.0239 74.9908L52.0561 74.3692C51.8229 76.6085 51.2273 77.448 50.8894 77.7271L54.7106 82.3529ZM57.1613 76.8013L57.4013 76.5613L53.1587 72.3187L52.9187 72.5587L57.1613 76.8013ZM54.5329 77.3455C56.069 77.7405 56.616 78.2304 56.7848 78.4596L61.6152 74.9004C60.2907 73.1029 58.2243 72.0995 56.0271 71.5345L54.5329 77.3455ZM56.8454 78.5389C57.2719 79.0792 57.4 79.5298 57.4 79.96H63.4C63.4 78.0436 62.7281 76.3074 61.5546 74.8211L56.8454 78.5389ZM57.4 79.96C57.4 80.402 57.3321 80.5763 57.3264 80.5893C57.3263 80.5895 57.3423 80.5537 57.3853 80.5026C57.4294 80.4501 57.4814 80.4064 57.53 80.376L60.71 85.464C62.7862 84.1664 63.4 81.9476 63.4 79.96H57.4ZM57.3459 80.5008C56.7239 80.9569 56.2058 81.2266 55.791 81.3748L57.809 87.0252C58.8875 86.64 59.9161 86.0564 60.8941 85.3392L57.3459 80.5008ZM53.8 84.2C53.8 84.4355 53.77 84.5431 53.7639 84.562C53.7614 84.5697 53.765 84.5564 53.7803 84.5292C53.7959 84.5014 53.8191 84.4676 53.8501 84.4331L58.3099 88.4469C59.4329 87.1991 59.8 85.6467 59.8 84.2H53.8ZM53.7581 84.5403C53.6009 84.7325 53.44 84.8442 53.2431 84.92L55.3969 90.52C56.5866 90.0625 57.5991 89.3209 58.4019 88.3397L53.7581 84.5403ZM52.9784 85.0367C52.7352 85.1583 52.4108 85.2566 51.9604 85.2866L52.3596 91.2734C53.5092 91.1967 54.6248 90.9217 55.6616 90.4033L52.9784 85.0367ZM51.7357 85.3102C51.0921 85.4021 50.5713 85.44 50.16 85.44V91.44C50.922 91.44 51.7345 91.3712 52.5843 91.2498L51.7357 85.3102ZM50.16 85.44C48.2842 85.44 46.6382 85.1068 45.1818 84.4826L42.8182 89.9974C45.0951 90.9732 47.5558 91.44 50.16 91.44V85.44ZM45.1423 84.466C43.5318 83.8028 42.0191 82.9754 40.6004 81.9823L37.1596 86.8977C38.9409 88.1446 40.8415 89.1838 42.8578 90.014L45.1423 84.466ZM40.6004 81.9823C39.1311 80.9538 37.7313 79.8001 36.4009 78.519L32.2391 82.841C33.7887 84.3332 35.4289 85.6862 37.1596 86.8977L40.6004 81.9823ZM36.3582 78.4787C34.8462 77.0787 33.3002 75.7852 31.72 74.6L28.12 79.4C29.5265 80.4548 30.9138 81.6147 32.2818 82.8813L36.3582 78.4787ZM31.7618 74.6319C30.169 73.3931 28.4818 72.3268 26.7016 71.4367L24.0184 76.8033C25.4382 77.5132 26.791 78.3669 28.0782 79.3681L31.7618 74.6319ZM26.6642 71.4183C24.6764 70.4587 22.5184 70 20.24 70V76C21.6949 76 22.9503 76.288 24.0558 76.8217L26.6642 71.4183ZM20.24 70H17.76V76H20.24V70ZM20.76 73V69.64H14.76V73H20.76ZM17.76 72.64C18.5281 72.64 19.3652 72.6105 20.2671 72.5542L19.8929 66.5658C19.0881 66.6161 18.3785 66.64 17.76 66.64V72.64ZM20.4521 72.5368C21.7066 72.38 22.8932 71.979 23.9723 71.315L20.8277 66.205C20.5201 66.3943 20.1601 66.5266 19.7079 66.5832L20.4521 72.5368ZM23.9723 71.315C25.226 70.5435 26.1452 69.422 26.8114 68.1637L21.5086 65.3563C21.2148 65.9113 20.9607 66.1232 20.8277 66.205L23.9723 71.315ZM26.8433 68.1016C27.619 66.5501 27.88 64.6866 27.88 62.76H21.88C21.88 64.2468 21.661 65.0499 21.4767 65.4184L26.8433 68.1016ZM27.88 62.76V15.88H21.88V62.76H27.88ZM27.88 15.88C27.88 13.3126 26.8101 11.0812 24.6241 9.62384L21.2959 14.6161C21.6699 14.8655 21.88 15.1407 21.88 15.88H27.88ZM24.7432 9.70747C22.809 8.27783 20.3542 7.76 17.76 7.76V13.76C19.6458 13.76 20.6577 14.1488 21.1768 14.5325L24.7432 9.70747ZM20.76 10.76C20.76 10.7104 20.7643 10.6806 20.767 10.6663C20.7696 10.6527 20.7718 10.6475 20.7721 10.6471C20.7723 10.6466 20.7742 10.6417 20.7817 10.6306C20.7894 10.6192 20.807 10.5956 20.8413 10.5613L16.5987 6.31868C15.395 7.52238 14.76 9.05923 14.76 10.76H20.76ZM20.9244 10.4748C20.8089 10.6 20.7505 10.5805 20.9271 10.5259C21.1166 10.4672 21.4791 10.4 22.08 10.4V4.4C20.1961 4.4 18.0133 4.78266 16.5156 6.40516L20.9244 10.4748ZM22.08 10.4C23.1199 10.4 23.9144 10.5792 24.5289 10.8558L26.9911 5.38423C25.4723 4.70078 23.8134 4.4 22.08 4.4V10.4ZM24.5782 10.8774C25.4297 11.2423 25.992 11.6346 26.3587 12.0013L30.6013 7.75868C29.5813 6.73869 28.3303 5.95766 26.9418 5.36256L24.5782 10.8774ZM30.6013 12.0013C30.9933 11.6094 31.5535 11.2147 32.3511 10.8558L29.8889 5.38423C28.5531 5.98533 27.3534 6.76396 26.3587 7.75868L30.6013 12.0013ZM32.3018 10.8774C33.0002 10.5781 33.8438 10.4 34.88 10.4V4.4C33.1429 4.4 31.4798 4.7019 29.9382 5.36256L32.3018 10.8774ZM34.88 10.4C35.4809 10.4 35.8434 10.4672 36.0329 10.5259C36.2095 10.5805 36.1511 10.6 36.0356 10.4748L40.4444 6.40516C38.9467 4.78266 36.7639 4.4 34.88 4.4V10.4ZM36.1187 10.5613C36.153 10.5956 36.1706 10.6192 36.1784 10.6306C36.1858 10.6417 36.1878 10.6466 36.188 10.6471C36.1882 10.6475 36.1904 10.6527 36.193 10.6663C36.1957 10.6806 36.2 10.7104 36.2 10.76H42.2C42.2 9.05923 41.565 7.52238 40.3613 6.31868L36.1187 10.5613ZM39.2 7.76C36.6298 7.76 34.2173 8.28968 32.2659 9.67192L35.7341 14.5681C36.3427 14.137 37.3969 13.76 39.2 13.76V7.76ZM32.3359 9.62385C30.1499 11.0812 29.08 13.3126 29.08 15.88H35.08C35.08 15.1407 35.2901 14.8655 35.6641 14.6161L32.3359 9.62385ZM29.08 15.88V64.92H35.08V15.88H29.08Z" fill="black" mask="url(#path-3-outside-2_2032_103)"/>
</g>
<defs>
<clipPath id="clip0_2032_103">
<rect width="124" height="124" fill="white"/>
</clipPath>
</defs>
</svg>
